<?xml version="1.0" encoding="UTF-8"?>
<svg width="283px" height="249px" viewBox="0 0 283 249" version="1.1" xmlns="http://www.w3.org/2000/svg" xmlns:xlink="http://www.w3.org/1999/xlink">
    <!-- Generator: Sketch 52.6 (67491) - http://www.bohemiancoding.com/sketch -->
    <title>bottom-right2@2x</title>
    <desc>Created with Sketch.</desc>
    <defs>
        <linearGradient x1="-0.0001412894%" y1="49.9999162%" x2="99.9997152%" y2="49.9999162%" id="linearGradient-1">
            <stop stop-color="#6740FF" offset="0%"></stop>
            <stop stop-color="#CB5DFF" offset="100%"></stop>
        </linearGradient>
        <polygon id="path-2" points="0.905360134 0.707181742 3.5561826 0.707181742 3.5561826 6.76402848 0.905360134 6.76402848"></polygon>
        <polygon id="path-4" points="0.266750419 0.582600503 7.46681323 0.582600503 7.46681323 3.30490727 0.266750419 3.30490727"></polygon>
    </defs>
    <g id="Updated-on-31-12-19" stroke="none" stroke-width="1" fill="none" fill-rule="evenodd">
        <g id="01" transform="translate(-717.000000, -1166.000000)">
            <g id="bottom-right2" transform="translate(717.000000, 1165.000000)">
                <circle id="Oval" fill="url(#linearGradient-1)" cx="262" cy="270" r="81"></circle>
                <g id="Group-381" opacity="0.388020833">
                    <path d="M156.276853,254.664154 C157.427397,252.231156 156.390442,249.33281 153.961108,248.18593 C151.528109,247.035385 148.629763,248.072341 147.479219,250.505339 C146.475241,252.626884 147.142117,255.114845 148.955873,256.470582 C149.216028,256.664782 149.494504,256.836997 149.798629,256.983564 C150.102753,257.126466 150.417871,257.232726 150.729324,257.309673 C152.927816,257.848304 155.272875,256.785699 156.276853,254.664154" id="Fill-55" fill="url(#linearGradient-1)"></path>
                    <path d="M83.7592127,256.256229 C84.906093,253.826895 83.8691374,250.924885 81.4398032,249.778005 C79.010469,248.62746 76.108459,249.664416 74.9579146,252.09375 C73.8110343,254.523084 74.8479899,257.425094 77.2773241,258.575639 C79.7103224,259.726183 82.6123325,258.685563 83.7592127,256.256229" id="Fill-59" fill="url(#linearGradient-1)"></path>
                    <path d="M105.354271,248.525597 C106.501152,246.096263 105.464196,243.194253 103.038526,242.047372 C100.609192,240.896828 97.7071817,241.937448 96.5603015,244.366782 C95.4134213,246.796116 96.4467127,249.698126 98.8760469,250.84867 C101.305381,251.995551 104.207391,250.954931 105.354271,248.525597" id="Fill-63" fill="url(#linearGradient-1)"></path>
                    <path d="M97.6232726,226.930538 C98.773817,224.501204 97.7368614,221.602858 95.3038631,220.452314 C92.8745289,219.301769 89.9725188,220.338725 88.8256386,222.771723 C87.8216604,224.893268 88.4885364,227.384893 90.3022927,228.736966 C90.5587835,228.931166 90.8409234,229.103381 91.1450482,229.249948 C91.4491729,229.39285 91.760626,229.49911 92.0757433,229.576057 C94.2742358,230.118352 96.6192944,229.055747 97.6232726,226.930538" id="Fill-71" fill="url(#linearGradient-1)"></path>
                    <path d="M126.952628,240.798262 C128.099508,238.365264 127.062552,235.466918 124.633218,234.320038 C122.203884,233.169493 119.305538,234.206449 118.154994,236.639447 C117.151015,238.760992 117.817892,241.248953 119.627984,242.60469 C119.888139,242.79889 120.166614,242.971106 120.474403,243.114008 C120.774864,243.260574 121.089981,243.366834 121.401434,243.443781 C123.599927,243.982412 125.948649,242.919807 126.952628,240.798262" id="Fill-73" fill="url(#linearGradient-1)"></path>
                    <path d="M25.1059987,228.524812 C26.252879,226.095477 25.2159234,223.193467 22.7865892,222.042923 C20.357255,220.896043 17.455245,221.932998 16.3047006,224.362332 C15.1578204,226.791667 16.194776,229.693677 18.6241101,230.844221 C21.0571085,231.991101 23.9591185,230.954146 25.1059987,228.524812" id="Fill-75" fill="url(#linearGradient-1)"></path>
                    <path d="M54.4335218,242.390704 C55.580402,239.961369 54.5434464,237.059359 52.1141122,235.912479 C49.6847781,234.761935 46.7864322,235.802554 45.6358878,238.231889 C44.4890075,240.657559 45.522299,243.559569 47.9552973,244.710113 C50.3846315,245.860657 53.2866415,244.820038 54.4335218,242.390704" id="Fill-77" fill="url(#linearGradient-1)"></path>
                    <path d="M46.7010574,220.791981 C47.8479376,218.362647 46.810982,215.460637 44.385312,214.313756 C41.9559778,213.166876 39.0576319,214.203832 37.9070875,216.633166 C36.7602073,219.0625 37.7934987,221.96451 40.2228329,223.115054 C42.6521671,224.261935 45.5541771,223.221315 46.7010574,220.791981" id="Fill-79" fill="url(#linearGradient-1)"></path>
                    <path d="M32.8351654,250.121336 C33.9820456,247.688338 32.94509,244.789992 30.51942,243.639447 C28.0900858,242.492567 25.1880758,243.533187 24.0411956,245.962521 C22.8943153,248.388191 23.9276068,251.293865 26.356941,252.440745 C28.7862751,253.587626 31.6882852,252.547006 32.8351654,250.121336" id="Fill-81" fill="url(#linearGradient-1)"></path>
                    <path d="M76.0285804,234.659705 C77.1754606,232.230371 76.138505,229.328361 73.7091709,228.177816 C71.2835008,227.030936 68.3814908,228.071556 67.2346106,230.50089 C66.0840662,232.92656 67.1210218,235.832234 69.5466918,236.979114 C71.9796901,238.129659 74.8817002,237.089039 76.0285804,234.659705" id="Fill-83" fill="url(#linearGradient-1)"></path>
                    <path d="M38.9700586,199.199121 C40.120603,196.766122 39.0836474,193.867776 36.6506491,192.720896 C34.2213149,191.570352 31.322969,192.607307 30.1724246,195.040306 C29.1684464,197.161851 29.8389866,199.649812 31.6490787,201.005549 C31.9092337,201.199749 32.1877094,201.371964 32.4918342,201.514866 C32.795959,201.661432 33.1074121,201.767693 33.4225293,201.84464 C35.6210218,202.386935 37.9660804,201.32433 38.9700586,199.199121" id="Fill-87" fill="url(#linearGradient-1)"></path>
                    <path d="M68.2994137,213.066478 C69.446294,210.63348 68.4093384,207.735134 65.9800042,206.58459 C63.55067,205.437709 60.6523241,206.474665 59.5017797,208.907663 C58.4978015,211.029209 59.1646776,213.517169 60.9747697,214.872906 C61.2349246,215.067106 61.5134003,215.239322 61.8211893,215.382224 C62.1253141,215.525126 62.433103,215.63505 62.7482203,215.711997 C64.9467127,216.250628 67.2954355,215.188023 68.2994137,213.066478" id="Fill-89" fill="url(#linearGradient-1)"></path>
                    <path d="M17.3753664,206.926089 C18.5222466,204.496755 17.485291,201.594745 15.0559569,200.447864 C12.6302869,199.300984 9.7282768,200.33794 8.58139657,202.767274 C7.43085218,205.196608 8.46780779,208.098618 10.8934778,209.245498 C13.3264761,210.396043 16.2284862,209.355423 17.3753664,206.926089" id="Fill-91" fill="url(#linearGradient-1)"></path>
                    <path d="M9.64619975,185.333229 C10.79308,182.903894 9.75612437,180.001884 7.3267902,178.855004 C4.93043342,177.722781 2.08704983,178.71943 0.907192211,181.075482 C0.962154523,182.654732 1.01711683,184.230318 1.11604899,185.80224 C1.42750209,186.311558 1.82689489,186.769577 2.3215557,187.139657 C2.58171064,187.333857 2.8638505,187.506072 3.16431114,187.648974 C3.47210008,187.79554 3.77988903,187.901801 4.09500628,187.978748 C6.29349874,188.521043 8.64222152,187.458438 9.64619975,185.333229" id="Fill-93" fill="url(#linearGradient-1)"></path>
                    <path d="M228.797791,253.069881 C229.948335,250.636882 228.907716,247.738536 226.478381,246.591656 C224.049047,245.441112 221.147037,246.478067 220.000157,248.911066 C218.849613,251.336736 219.890232,254.238746 222.319567,255.38929 C224.748901,256.53617 227.650911,255.499215 228.797791,253.069881" id="Fill-105" fill="url(#linearGradient-1)"></path>
                    <path d="M250.392483,245.337416 C251.539363,242.908082 250.502408,240.006072 248.076738,238.859192 C245.647404,237.712312 242.745394,238.749267 241.598513,241.178601 C240.451633,243.607936 241.488589,246.509946 243.917923,247.656826 C246.343593,248.80737 249.245603,247.76675 250.392483,245.337416" id="Fill-109" fill="url(#linearGradient-1)"></path>
                    <path d="M242.665149,223.74419 C243.097519,222.831815 243.218436,221.853486 243.075534,220.926455 C242.837364,219.383846 241.862699,217.984139 240.345739,217.262301 C238.825115,216.547791 237.121284,216.683365 235.780203,217.478486 C234.970425,217.954826 234.296221,218.669336 233.863851,219.581711 C232.71697,222.007381 233.75759,224.913055 236.18326,226.059935 C238.616258,227.210479 241.518268,226.16986 242.665149,223.74419" id="Fill-117" fill="url(#linearGradient-1)"></path>
                    <path d="M271.99084,237.610082 C272.42321,236.697707 272.544127,235.719378 272.404889,234.792347 C272.163055,233.249738 271.192054,231.850031 269.67143,231.128193 C268.15447,230.413683 266.450639,230.549257 265.105894,231.344378 C264.29978,231.824382 263.621912,232.538892 263.193206,233.451267 C262.046325,235.876937 263.079617,238.778947 265.512615,239.925827 C267.941949,241.076371 270.843959,240.035752 271.99084,237.610082" id="Fill-119" fill="url(#linearGradient-1)"></path>
                    <path d="M170.144211,225.336631 C171.291091,222.903633 170.254135,220.005287 167.824801,218.858407 C165.395467,217.707862 162.497121,218.744818 161.346577,221.177816 C160.196032,223.603486 161.232988,226.505496 163.665986,227.656041 C166.09532,228.806585 168.99733,227.765965 170.144211,225.336631" id="Fill-121" fill="url(#linearGradient-1)"></path>
                    <path d="M199.471734,239.203989 C200.618614,236.77099 199.581658,233.872644 197.152324,232.725764 C194.72299,231.57522 191.824644,232.612175 190.6741,235.045174 C189.527219,237.470844 190.560511,240.372854 192.989845,241.523398 C195.422843,242.670278 198.324853,241.633323 199.471734,239.203989" id="Fill-123" fill="url(#linearGradient-1)"></path>
                    <path d="M191.739269,217.605632 C192.886149,215.176298 191.852858,212.274288 189.423524,211.127408 C186.99419,209.980528 184.09218,211.017483 182.945299,213.446817 C181.798419,215.876152 182.835375,218.778162 185.264709,219.925042 C187.694043,221.075586 190.592389,220.034966 191.739269,217.605632" id="Fill-125" fill="url(#linearGradient-1)"></path>
                    <path d="M177.873377,246.931323 C179.020258,244.501989 177.983302,241.603643 175.557632,240.453099 C173.128298,239.306219 170.226288,240.343174 169.079407,242.772508 C167.932527,245.198178 168.965819,248.103853 171.395153,249.254397 C173.824487,250.401277 176.726497,249.360657 177.873377,246.931323" id="Fill-127" fill="url(#linearGradient-1)"></path>
                    <path d="M221.066792,231.471524 C222.213673,229.04219 221.176717,226.14018 218.747383,224.9933 C216.321713,223.84642 213.423367,224.883375 212.272822,227.312709 C211.125942,229.742044 212.159234,232.644054 214.584904,233.790934 C217.017902,234.941478 219.919912,233.900858 221.066792,231.471524" id="Fill-129" fill="url(#linearGradient-1)"></path>
                    <path d="M184.010103,196.010574 C184.442473,195.098199 184.56339,194.123534 184.420488,193.192839 C184.185982,191.653894 183.211317,190.250523 181.690693,189.532349 C180.173733,188.814175 178.469902,188.949749 177.125157,189.74487 C176.319043,190.224874 175.641175,190.939384 175.212469,191.851759 C174.065588,194.277429 175.102544,197.179439 177.531878,198.329983 C179.964876,199.476863 182.863222,198.436244 184.010103,196.010574" id="Fill-133" fill="url(#linearGradient-1)"></path>
                    <path d="M213.337626,209.876466 C213.769996,208.964091 213.890913,207.989426 213.751675,207.062395 C213.513505,205.519786 212.53884,204.116415 211.018216,203.398241 C209.501256,202.680067 207.797425,202.815641 206.45268,203.614426 C205.646566,204.090766 204.972362,204.805276 204.539992,205.717651 C203.393111,208.143321 204.426403,211.045331 206.859401,212.195875 C209.288735,213.342755 212.190745,212.3058 213.337626,209.876466" id="Fill-135" fill="url(#linearGradient-1)"></path>
                    <path d="M111.490997,197.604847 C112.637877,195.171849 111.600921,192.273503 109.171587,191.126623 C106.742253,189.976078 103.840243,191.013034 102.689698,193.446032 C101.542818,195.871702 102.579774,198.773712 105.009108,199.924257 C107.442106,201.074801 110.344116,200.034181 111.490997,197.604847" id="Fill-137" fill="url(#linearGradient-1)"></path>
                    <path d="M140.81852,211.472571 C141.9654,209.039573 140.928444,206.141227 138.49911,204.990683 C136.069776,203.843802 133.17143,204.880758 132.020886,207.313756 C130.874005,209.739426 131.907297,212.641436 134.340295,213.791981 C136.769629,214.938861 139.671639,213.901905 140.81852,211.472571" id="Fill-139" fill="url(#linearGradient-1)"></path>
                    <path d="M133.086055,189.873848 C134.232936,187.444514 133.19598,184.542504 130.77031,183.395624 C128.340976,182.24508 125.44263,183.285699 124.292085,185.715034 C123.145205,188.140704 124.182161,191.046378 126.611495,192.193258 C129.037165,193.340138 131.939175,192.303183 133.086055,189.873848" id="Fill-141" fill="url(#linearGradient-1)"></path>
                    <path d="M119.220163,219.199539 C120.367044,216.770205 119.330088,213.868195 116.904418,212.721315 C114.475084,211.574435 111.573074,212.61139 110.426193,215.040724 C109.279313,217.466394 110.312605,220.372069 112.741939,221.518949 C115.171273,222.669493 118.073283,221.625209 119.220163,219.199539" id="Fill-143" fill="url(#linearGradient-1)"></path>
                    <path d="M162.411746,203.73974 C163.562291,201.310406 162.521671,198.408396 160.092337,197.261516 C157.666667,196.110972 154.768321,197.151591 153.617776,199.580925 C152.470896,202.01026 153.507852,204.91227 155.933522,206.05915 C158.362856,207.20603 161.264866,206.169075 162.411746,203.73974" id="Fill-145" fill="url(#linearGradient-1)"></path>
                    <path d="M148.545854,233.065431 C149.692735,230.636097 148.655779,227.734087 146.226445,226.587207 C143.800775,225.440327 140.902429,226.477282 139.751884,228.906616 C138.605004,231.332286 139.64196,234.237961 142.06763,235.384841 C144.496964,236.535385 147.398974,235.491101 148.545854,233.065431" id="Fill-147" fill="url(#linearGradient-1)"></path>
                    <path d="M125.356889,168.277324 C125.789259,167.36495 125.910176,166.390285 125.767274,165.463254 C125.532768,163.920645 124.558103,162.517274 123.037479,161.7991 C121.520519,161.080925 119.816688,161.216499 118.471943,162.015285 C117.665829,162.491625 116.987961,163.206135 116.55559,164.118509 C115.40871,166.544179 116.44933,169.446189 118.878664,170.596734 C121.311662,171.743614 124.210008,170.706658 125.356889,168.277324" id="Fill-149" fill="url(#linearGradient-1)"></path>
                    <path d="M154.684412,182.145048 C155.116782,181.232674 155.237699,180.258009 155.094797,179.327314 C154.860291,177.784705 153.881962,176.384998 152.365002,175.666824 C150.848042,174.948649 149.144211,175.084223 147.799466,175.879345 C146.993352,176.359349 146.319148,177.073859 145.886778,177.986233 C144.739897,180.411903 145.773189,183.313913 148.206187,184.460794 C150.635521,185.611338 153.537531,184.570718 154.684412,182.145048" id="Fill-151" fill="url(#linearGradient-1)"></path>
                    <path d="M52.8377827,169.873063 C53.9846629,167.440065 52.9477073,164.541719 50.5183731,163.391175 C48.0890389,162.244294 45.1870289,163.28125 44.0364845,165.710584 C42.8896043,168.139918 43.9265599,171.041928 46.3558941,172.192473 C48.7888924,173.339353 51.6909024,172.302397 52.8377827,169.873063" id="Fill-153" fill="url(#linearGradient-1)"></path>
                    <path d="M82.1653057,183.738955 C83.3121859,181.305957 82.2752303,178.407611 79.8458961,177.260731 C77.416562,176.110186 74.5182161,177.147142 73.3676717,179.58014 C72.2207915,182.00581 73.2540829,184.90782 75.6870812,186.058365 C78.1164154,187.208909 81.0184255,186.168289 82.1653057,183.738955" id="Fill-155" fill="url(#linearGradient-1)"></path>
                    <path d="M74.4324749,162.140599 C75.5793551,159.711265 74.5423995,156.809255 72.1167295,155.662374 C69.6873953,154.515494 66.7890494,155.55245 65.638505,157.981784 C64.4916248,160.411118 65.5285804,163.313128 67.9579146,164.460008 C70.3835846,165.610553 73.2855946,164.569933 74.4324749,162.140599" id="Fill-157" fill="url(#linearGradient-1)"></path>
                    <path d="M60.5669493,191.468122 C61.7138296,189.038788 60.676874,186.136778 58.2512039,184.989897 C55.8218698,183.839353 52.9198597,184.879973 51.7729795,187.309307 C50.6260992,189.734977 51.6593907,192.640651 54.0887249,193.787531 C56.518059,194.934412 59.4200691,193.893792 60.5669493,191.468122" id="Fill-159" fill="url(#linearGradient-1)"></path>
                    <path d="M103.759998,176.006491 C104.906878,173.577157 103.869923,170.675147 101.440588,169.528266 C99.0149183,168.381386 96.1129083,169.418342 94.9660281,171.847676 C93.8154837,174.27701 94.8524393,177.17902 97.2781093,178.3259 C99.7111076,179.476445 102.613118,178.435825 103.759998,176.006491" id="Fill-161" fill="url(#linearGradient-1)"></path>
                    <path d="M89.8926403,205.334014 C91.0431847,202.90468 90.0025649,200.00267 87.5732307,198.855789 C85.1475607,197.708909 82.2492148,198.745865 81.0986704,201.175199 C79.9517902,203.600869 80.9887458,206.506543 83.4144158,207.653423 C85.84375,208.800304 88.7457601,207.759684 89.8926403,205.334014" id="Fill-163" fill="url(#linearGradient-1)"></path>
                    <path d="M66.7036746,140.54554 C67.1360448,139.633166 67.2569619,138.658501 67.1140599,137.73147 C66.879554,136.188861 65.904889,134.78549 64.3842651,134.067316 C62.8673053,133.349142 61.1598095,133.484715 59.8187291,134.279837 C59.0126152,134.759841 58.3347466,135.474351 57.9023765,136.386725 C56.7554962,138.812395 57.796116,141.714405 60.2254502,142.86495 C62.6584485,144.01183 65.5567944,142.97121 66.7036746,140.54554" id="Fill-165" fill="url(#linearGradient-1)"></path>
                    <path d="M96.0311977,154.413264 C96.4635678,153.50089 96.5844849,152.522561 96.4415829,151.59553 C96.2070771,150.052921 95.2287479,148.653214 93.7117881,147.93504 C92.1948283,147.216866 90.4909966,147.352439 89.1462521,148.147561 C88.3401382,148.623901 87.6659338,149.342075 87.2335637,150.254449 C86.0866834,152.680119 87.1199749,155.582129 89.5529732,156.72901 C91.9823074,157.879554 94.8843174,156.838934 96.0311977,154.413264" id="Fill-167" fill="url(#linearGradient-1)"></path>
                    <path d="M23.5120917,156.007538 C24.6626361,153.574539 23.6220163,150.676193 21.1926822,149.525649 C18.763348,148.378769 15.8613379,149.415724 14.7144577,151.845059 C13.5639133,154.274393 14.6008689,157.176403 17.0302031,158.326947 C19.4632014,159.473827 22.3652115,158.436872 23.5120917,156.007538" id="Fill-169" fill="url(#linearGradient-1)"></path>
                    <path d="M15.7792609,134.408815 C16.9261411,131.979481 15.8891855,129.077471 13.4635155,127.93059 C11.0341813,126.780046 8.13583543,127.820666 6.98529104,130.25 C5.8384108,132.679334 6.87170226,135.581344 9.30470059,136.728224 C11.7303706,137.875105 14.6323807,136.838149 15.7792609,134.408815" id="Fill-171" fill="url(#linearGradient-1)"></path>
                    <g id="Group-175" transform="translate(0.000000, 158.175251)">
                        <mask id="mask-3" fill="white">
                            <use xlink:href="#path-2"></use>
                        </mask>
                        <g id="Clip-174"></g>
                        <path d="M1.4894263,0.707181742 C1.30255444,2.72979481 1.18896566,4.74507956 1.07171273,6.76402848 C1.4014866,6.41226968 1.69828308,6.02020519 1.91446817,5.56218593 C2.68760469,3.92430905 2.45309883,2.08856784 1.4894263,0.707181742" id="Fill-173" fill="url(#linearGradient-1)" mask="url(#mask-3)"></path>
                    </g>
                    <path d="M45.1067839,148.274707 C46.2536642,145.845373 45.2167085,142.943363 42.7873744,141.796482 C40.3617044,140.649602 37.4596943,141.686558 36.3128141,144.115892 C35.1622697,146.545226 36.1992253,149.447236 38.6248953,150.594116 C41.0578936,151.740997 43.9599037,150.704041 45.1067839,148.274707" id="Fill-176" fill="url(#linearGradient-1)"></path>
                    <path d="M31.240892,177.60223 C32.3877722,175.172896 31.3508166,172.270886 28.9214824,171.120341 C26.4958124,169.973461 23.5938023,171.014081 22.4469221,173.443415 C21.3000419,175.869085 22.3333333,178.774759 24.7590034,179.921639 C27.1920017,181.06852 30.0940117,180.0279 31.240892,177.60223" id="Fill-178" fill="url(#linearGradient-1)"></path>
                    <path d="M37.3776173,126.68148 C37.8099874,125.769106 37.9309045,124.790777 37.7880025,123.863746 C37.5498325,122.321137 36.5751675,120.917766 35.0582077,120.199592 C33.5375838,119.481418 31.8374162,119.616991 30.4963358,120.415777 C29.6865578,120.892117 29.0086893,121.606627 28.5799832,122.519001 C27.433103,124.944671 28.4663945,127.846681 30.8957286,128.997226 C33.328727,130.14777 36.230737,129.10715 37.3776173,126.68148" id="Fill-180" fill="url(#linearGradient-1)"></path>
                    <path d="M256.531041,194.416667 C257.677921,191.987332 256.640965,189.085322 254.211631,187.938442 C251.782297,186.787898 248.880287,187.828518 247.729742,190.257852 C246.582862,192.683522 247.619818,195.585532 250.049152,196.736076 C252.48215,197.882956 255.38416,196.846001 256.531041,194.416667" id="Fill-192" fill="url(#linearGradient-1)"></path>
                    <path d="M285.856732,208.282559 C287.003612,205.853224 285.966656,202.951214 283.537322,201.804334 C281.107988,200.65379 278.209642,201.69441 277.059098,204.123744 C275.912217,206.549414 276.945509,209.451424 279.378507,210.601968 C281.807841,211.752513 284.709851,210.711893 285.856732,208.282559" id="Fill-194" fill="url(#linearGradient-1)"></path>
                    <path d="M278.124267,186.685668 C279.271147,184.25267 278.234192,181.354324 275.808522,180.207443 C273.379188,179.060563 270.480842,180.097519 269.330297,182.526853 C268.179753,184.956187 269.216709,187.858197 271.646043,189.005077 C274.075377,190.155622 276.977387,189.115002 278.124267,186.685668" id="Fill-196" fill="url(#linearGradient-1)"></path>
                    <path d="M264.258375,216.011359 C265.405255,213.582025 264.3683,210.680015 261.94263,209.533134 C259.513296,208.38259 256.611286,209.42321 255.464405,211.852544 C254.317525,214.281878 255.350817,217.183888 257.780151,218.334433 C260.209485,219.481313 263.111495,218.440693 264.258375,216.011359" id="Fill-198" fill="url(#linearGradient-1)"></path>
                    <path d="M270.395101,165.092441 C270.827471,164.180067 270.948388,163.201738 270.805486,162.274707 C270.57098,160.732098 269.596315,159.328727 268.079355,158.610553 C266.558731,157.892379 264.854899,158.027952 263.510155,158.826738 C262.704041,159.303078 262.026173,160.017588 261.597466,160.929962 C260.450586,163.355632 261.487542,166.257642 263.916876,167.408187 C266.349874,168.555067 269.251884,167.518111 270.395101,165.092441" id="Fill-204" fill="url(#linearGradient-1)"></path>
                    <path d="M197.875995,166.683051 C199.022875,164.253716 197.985919,161.355371 195.556585,160.204826 C193.127251,159.054282 190.225241,160.094902 189.078361,162.524236 C187.93148,164.949906 188.968436,167.851916 191.39777,169.00246 C193.827104,170.153005 196.729114,169.112385 197.875995,166.683051" id="Fill-208" fill="url(#linearGradient-1)"></path>
                    <path d="M227.203518,180.550775 C228.350398,178.121441 227.313442,175.21943 224.884108,174.07255 C222.454774,172.922006 219.556428,173.962626 218.405884,176.39196 C217.259003,178.81763 218.292295,181.71964 220.725293,182.870184 C223.154627,184.017064 226.056637,182.980109 227.203518,180.550775" id="Fill-210" fill="url(#linearGradient-1)"></path>
                    <path d="M219.470687,158.95425 C220.617567,156.521252 219.584276,153.622906 217.154941,152.476026 C214.725607,151.325482 211.827261,152.366101 210.676717,154.795436 C209.526173,157.22477 210.563128,160.12678 212.992462,161.27366 C215.421796,162.424204 218.323807,161.383585 219.470687,158.95425" id="Fill-212" fill="url(#linearGradient-1)"></path>
                    <path d="M205.605161,188.279941 C206.752041,185.850607 205.71875,182.948597 203.289416,181.801717 C200.860082,180.651173 197.961736,181.691792 196.811191,184.121126 C195.664311,186.546796 196.697603,189.452471 199.126937,190.599351 C201.556271,191.749895 204.458281,190.709276 205.605161,188.279941" id="Fill-214" fill="url(#linearGradient-1)"></path>
                    <path d="M248.79821,172.819776 C249.94509,170.386778 248.908134,167.488432 246.4788,166.341552 C244.05313,165.194671 241.154784,166.231627 240.00424,168.660961 C238.85736,171.090295 239.890651,173.992305 242.316321,175.139186 C244.74932,176.286066 247.65133,175.24911 248.79821,172.819776" id="Fill-216" fill="url(#linearGradient-1)"></path>
                    <path d="M234.932684,202.145833 C236.079564,199.716499 235.042609,196.814489 232.613275,195.663945 C230.187605,194.517064 227.289259,195.557684 226.138714,197.987018 C224.991834,200.416353 226.025126,203.318363 228.450796,204.465243 C230.883794,205.615787 233.785804,204.575168 234.932684,202.145833" id="Fill-218" fill="url(#linearGradient-1)"></path>
                    <path d="M211.740054,137.359192 C212.172425,136.446817 212.297006,135.468488 212.154104,134.541457 C211.915934,133.002513 210.944933,131.599142 209.424309,130.877303 C207.907349,130.162793 206.199853,130.298367 204.858773,131.093488 C204.048995,131.569828 203.374791,132.288003 202.94242,133.200377 C201.79554,135.622383 202.832496,138.524393 205.265494,139.674937 C207.694828,140.825482 210.596838,139.784862 211.740054,137.359192" id="Fill-220" fill="url(#linearGradient-1)"></path>
                    <path d="M241.06941,151.225084 C241.50178,150.312709 241.622697,149.33438 241.483459,148.411013 C241.245289,146.868405 240.270624,145.465034 238.75,144.743195 C237.23304,144.028685 235.529209,144.164259 234.184464,144.95938 C233.37835,145.439384 232.700482,146.153894 232.271776,147.066269 C231.124895,149.491939 232.161851,152.390285 234.591185,153.540829 C237.020519,154.691374 239.922529,153.650754 241.06941,151.225084" id="Fill-222" fill="url(#linearGradient-1)"></path>
                    <path d="M139.222781,138.951633 C140.369661,136.522299 139.336369,133.620289 136.903371,132.473409 C134.474037,131.322864 131.572027,132.363484 130.421482,134.792818 C129.274602,137.218488 130.315222,140.120498 132.744556,141.271043 C135.17389,142.421587 138.0759,141.380967 139.222781,138.951633" id="Fill-224" fill="url(#linearGradient-1)"></path>
                    <path d="M168.550304,152.818991 C169.697184,150.389657 168.660228,147.487647 166.230894,146.337102 C163.80156,145.190222 160.903214,146.230842 159.75267,148.660176 C158.605789,151.085846 159.639081,153.987856 162.072079,155.1384 C164.501413,156.285281 167.403423,155.248325 168.550304,152.818991" id="Fill-226" fill="url(#linearGradient-1)"></path>
                    <path d="M160.817473,131.222466 C161.964353,128.789468 160.927397,125.891122 158.501727,124.744242 C156.072393,123.593698 153.174047,124.630653 152.023503,127.063652 C150.876623,129.492986 151.913578,132.394996 154.342912,133.541876 C156.768582,134.688756 159.670593,133.651801 160.817473,131.222466" id="Fill-228" fill="url(#linearGradient-1)"></path>
                    <path d="M146.951581,160.546325 C148.098461,158.116991 147.061505,155.214981 144.635835,154.068101 C142.206501,152.921221 139.308155,153.958176 138.157611,156.38751 C137.010731,158.816845 138.044022,161.718855 140.473356,162.869399 C142.902691,164.016279 145.804701,162.97566 146.951581,160.546325" id="Fill-230" fill="url(#linearGradient-1)"></path>
                    <path d="M190.143164,145.088358 C191.293708,142.65536 190.253088,139.757014 187.823754,138.610134 C185.398084,137.45959 182.499738,138.500209 181.349194,140.929544 C180.202314,143.358878 181.239269,146.260888 183.664939,147.407768 C186.094273,148.554648 188.996284,147.517693 190.143164,145.088358" id="Fill-232" fill="url(#linearGradient-1)"></path>
                    <path d="M176.279104,174.412217 C177.425984,171.982883 176.389028,169.080873 173.959694,167.933993 C171.534024,166.787113 168.632014,167.824068 167.485134,170.253402 C166.33459,172.682737 167.371545,175.584747 169.797215,176.731627 C172.230214,177.882171 175.132224,176.841552 176.279104,174.412217" id="Fill-234" fill="url(#linearGradient-1)"></path>
                    <path d="M153.088306,109.627408 C153.520676,108.715034 153.641593,107.736704 153.498691,106.809673 C153.264186,105.267064 152.289521,103.863693 150.768897,103.145519 C149.251937,102.427345 147.548105,102.566583 146.203361,103.361704 C145.397247,103.838044 144.719378,104.552554 144.287008,105.464929 C143.140128,107.890599 144.180747,110.792609 146.610082,111.943153 C149.04308,113.090034 151.941426,112.053078 153.088306,109.627408" id="Fill-236" fill="url(#linearGradient-1)"></path>
                    <path d="M182.415829,123.4933 C182.848199,122.580925 182.969116,121.602596 182.826214,120.675565 C182.591709,119.132956 181.613379,117.729585 180.09642,117.011411 C178.57946,116.293237 176.875628,116.432475 175.530884,117.227596 C174.72477,117.703936 174.050565,118.422111 173.618195,119.334485 C172.471315,121.756491 173.508271,124.658501 175.937605,125.809045 C178.366939,126.95959 181.268949,125.91897 182.415829,123.4933" id="Fill-238" fill="url(#linearGradient-1)"></path>
                    <path d="M80.5692002,111.219849 C81.7160804,108.790515 80.6827889,105.888505 78.2497906,104.741625 C75.8204564,103.59108 72.9184464,104.628036 71.767902,107.05737 C70.6210218,109.486704 71.6616415,112.388714 74.0909757,113.539259 C76.523974,114.686139 79.4223199,113.649183 80.5692002,111.219849" id="Fill-240" fill="url(#linearGradient-1)"></path>
                    <path d="M109.896723,125.085741 C111.043603,122.656407 110.006648,119.754397 107.577314,118.607517 C105.147979,117.456972 102.249634,118.497592 101.099089,120.926926 C99.952209,123.352596 100.9855,126.254606 103.418499,127.405151 C105.847833,128.555695 108.749843,127.515075 109.896723,125.085741" id="Fill-242" fill="url(#linearGradient-1)"></path>
                    <path d="M102.164259,103.488851 C103.314803,101.055852 102.274183,98.1575063 99.8485134,97.010626 C97.4191792,95.8637458 94.5208333,96.9007014 93.3702889,99.3300356 C92.2234087,101.75937 93.2603643,104.66138 95.6896985,105.80826 C98.1153685,106.958804 101.017379,105.918185 102.164259,103.488851" id="Fill-244" fill="url(#linearGradient-1)"></path>
                    <path d="M88.2983668,132.814908 C89.4452471,130.385574 88.4082915,127.483564 85.9826214,126.336683 C83.5532873,125.186139 80.6549414,126.226759 79.504397,128.656093 C78.3575168,131.085427 79.3944724,133.987437 81.8201424,135.137982 C84.2494765,136.284862 87.1514866,135.244242 88.2983668,132.814908" id="Fill-246" fill="url(#linearGradient-1)"></path>
                    <path d="M131.491782,117.356575 C132.638662,114.923576 131.601706,112.02523 129.172372,110.874686 C126.746702,109.727806 123.844692,110.764761 122.697812,113.19776 C121.547268,115.62343 122.584223,118.529104 125.009893,119.675984 C127.442892,120.822864 130.344902,119.785909 131.491782,117.356575" id="Fill-248" fill="url(#linearGradient-1)"></path>
                    <path d="M117.62589,146.680433 C118.77277,144.251099 117.735814,141.349089 115.30648,140.202209 C112.88081,139.051665 109.9788,140.092284 108.83192,142.521619 C107.68504,144.950953 108.718331,147.852963 111.144001,148.999843 C113.577,150.150387 116.47901,149.109768 117.62589,146.680433" id="Fill-250" fill="url(#linearGradient-1)"></path>
                    <path d="M94.4350921,81.8941583 C94.8674623,80.9817839 94.9883794,80.0034548 94.8454774,79.0800879 C94.6109715,77.5374791 93.6363065,76.1304439 92.1156826,75.4122697 C90.5987228,74.6977596 88.8948911,74.8333333 87.5501466,75.6284548 C86.7440327,76.1047948 86.0661642,76.822969 85.633794,77.7353434 C84.4869137,80.1573492 85.5275335,83.0630235 87.9568677,84.2099037 C90.389866,85.3604481 93.2882119,84.3198283 94.4350921,81.8941583" id="Fill-252" fill="url(#linearGradient-1)"></path>
                    <path d="M123.762615,95.7618823 C124.194985,94.849508 124.315902,93.8711788 124.173,92.9441478 C123.938495,91.4015389 122.960165,89.9981679 121.443206,89.2799937 C119.926246,88.5618195 118.222414,88.7010574 116.87767,89.4961788 C116.071556,89.9725188 115.397351,90.690693 114.964981,91.6030674 C113.818101,94.0250733 114.855057,96.9270833 117.284391,98.0776277 C119.717389,99.224508 122.615735,98.1875523 123.762615,95.7618823" id="Fill-254" fill="url(#linearGradient-1)"></path>
                    <path d="M51.2435092,97.3539573 C52.3903894,94.9246231 51.3534338,92.0226131 48.9240997,90.8720687 C46.4947655,89.7251884 43.5927554,90.7658082 42.4458752,93.1914782 C41.2953308,95.6208124 42.3322864,98.5228224 44.7616206,99.6733668 C47.1946189,100.820247 50.096629,99.7832915 51.2435092,97.3539573" id="Fill-256" fill="url(#linearGradient-1)"></path>
                    <path d="M43.5110448,75.757433 C44.6615892,73.3244347 43.6209694,70.4260888 41.1952994,69.2792085 C39.4511621,68.4547739 37.4725188,68.7735553 36.0654837,69.909443 C35.5708229,70.5616625 35.098147,71.2322027 34.6144786,71.8917504 C33.672791,74.258794 34.7024183,76.9739322 37.0364845,78.0768425 C39.4621545,79.2237228 42.3641646,78.1867672 43.5110448,75.757433" id="Fill-258" fill="url(#linearGradient-1)"></path>
                    <path d="M29.6451528,105.083124 C30.7920331,102.65379 29.7550775,99.7517797 27.3294075,98.6048995 C24.9000733,97.4543551 22.0017274,98.4949749 20.851183,100.924309 C19.7043028,103.349979 20.7375942,106.255653 23.1705925,107.406198 C25.5962626,108.553078 28.4982726,107.512458 29.6451528,105.083124" id="Fill-260" fill="url(#linearGradient-1)"></path>
                    <path d="M72.8385678,89.623325 C73.9854481,87.1903266 72.9484925,84.2919807 70.5191583,83.1451005 C68.0934883,81.9982203 65.1914782,83.0351759 64.044598,85.4645101 C62.8940536,87.8938442 63.9310092,90.7958543 66.3566792,91.9427345 C68.7896776,93.0932789 71.6916876,92.0526591 72.8385678,89.623325" id="Fill-262" fill="url(#linearGradient-1)"></path>
                    <path d="M58.9726759,118.949016 C60.1195561,116.519682 59.0826005,113.617672 56.6532663,112.467127 C54.2275963,111.320247 51.3255863,112.360867 50.178706,114.790201 C49.0318258,117.219535 50.0651173,120.121545 52.4907873,121.268425 C54.9237856,122.41897 57.8257956,121.37835 58.9726759,118.949016" id="Fill-264" fill="url(#linearGradient-1)"></path>
                    <path d="M65.1094012,68.0282663 C65.5417714,67.115892 65.6626884,66.1375628 65.5197864,65.2105318 C65.2816164,63.6679229 64.3106156,62.2645519 62.7899916,61.5463777 C61.2693677,60.8282035 59.5692002,60.9674414 58.2244556,61.7625628 C57.4183417,62.2389028 56.7404732,62.9570771 56.3117672,63.8694514 C55.1648869,66.2914573 56.2018425,69.1934673 58.6311767,70.3440117 C61.064175,71.4945561 63.9625209,70.4539363 65.1094012,68.0282663" id="Fill-266" fill="url(#linearGradient-1)"></path>
                    <path d="M284.262825,135.763453 C285.409705,133.334119 284.372749,130.432108 281.943415,129.285228 C279.514081,128.134684 276.612071,129.175304 275.461526,131.604638 C274.314646,134.030308 275.355266,136.932318 277.7846,138.082862 C280.213934,139.233407 283.115944,138.192787 284.262825,135.763453" id="Fill-272" fill="url(#linearGradient-1)"></path>
                    <path d="M291.989793,157.359977 C293.136673,154.930643 292.099717,152.028633 289.674047,150.881753 C287.244713,149.731208 284.342703,150.771828 283.195823,153.201162 C282.048943,155.626832 283.085898,158.532506 285.515232,159.679387 C287.940902,160.826267 290.842912,159.785647 291.989793,157.359977" id="Fill-278" fill="url(#linearGradient-1)"></path>
                    <path d="M225.607412,108.031669 C226.754292,105.59867 225.721001,102.700325 223.291667,101.553444 C220.858668,100.4029 217.960322,101.439856 216.809778,103.872854 C215.662898,106.298524 216.699853,109.200534 219.129188,110.351078 C221.562186,111.497959 224.460532,110.461003 225.607412,108.031669" id="Fill-288" fill="url(#linearGradient-1)"></path>
                    <path d="M254.936767,121.897561 C256.083647,119.468227 255.046692,116.566216 252.617358,115.419336 C250.184359,114.268792 247.286013,115.309412 246.139133,117.738746 C244.988589,120.164416 246.025544,123.066426 248.454879,124.21697 C250.887877,125.363851 253.789887,124.326895 254.936767,121.897561" id="Fill-290" fill="url(#linearGradient-1)"></path>
                    <path d="M247.202471,100.30067 C248.353015,97.8676717 247.316059,94.9693258 244.886725,93.8224456 C242.457391,92.6719012 239.559045,93.7125209 238.408501,96.1418551 C237.261621,98.5711893 238.298576,101.473199 240.72791,102.62008 C243.157245,103.770624 246.05559,102.730004 247.202471,100.30067" id="Fill-292" fill="url(#linearGradient-1)"></path>
                    <path d="M233.336579,129.628193 C234.483459,127.195195 233.450168,124.296849 231.020833,123.149969 C228.591499,121.999424 225.689489,123.040044 224.542609,125.469378 C223.395729,127.895048 224.432684,130.797058 226.862018,131.947603 C229.291353,133.094483 232.189698,132.053863 233.336579,129.628193" id="Fill-294" fill="url(#linearGradient-1)"></path>
                    <path d="M276.529994,114.166562 C277.676874,111.733564 276.639918,108.835218 274.210584,107.688338 C271.784914,106.541457 268.886568,107.578413 267.736024,110.011411 C266.589144,112.437081 267.622435,115.339091 270.048105,116.485972 C272.481103,117.636516 275.383113,116.595896 276.529994,114.166562" id="Fill-296" fill="url(#linearGradient-1)"></path>
                    <path d="M262.664102,143.494085 C263.810982,141.064751 262.774026,138.162741 260.344692,137.012196 C257.919022,135.865316 255.020676,136.905936 253.870132,139.33527 C252.723252,141.76094 253.756543,144.666614 256.182213,145.813495 C258.615211,146.960375 261.517222,145.919755 262.664102,143.494085" id="Fill-298" fill="url(#linearGradient-1)"></path>
                    <path d="M239.473304,78.7059778 C239.905674,77.7936034 240.026591,76.8189384 239.887353,75.8882433 C239.649183,74.3492986 238.674518,72.9459276 237.157559,72.2277534 C235.636935,71.5095791 233.933103,71.6451528 232.588358,72.4402743 C231.782245,72.9166143 231.104376,73.6347885 230.67567,74.5471629 C229.957496,76.0641227 230.09307,77.7642902 230.891855,79.1090348 C231.368195,79.9151487 232.082705,80.5930172 232.99508,81.0253874 C233.907454,81.4540934 234.885783,81.5786746 235.80915,81.4357726 C237.355423,81.1976026 238.75513,80.2229376 239.473304,78.7059778" id="Fill-300" fill="url(#linearGradient-1)"></path>
                    <path d="M268.800827,92.5733354 C269.233197,91.6609611 269.354114,90.6826319 269.214876,89.7556009 C268.973042,88.2166562 268.002041,86.8132852 266.481418,86.0914468 C264.964458,85.3769368 263.260626,85.5125105 261.915881,86.3076319 C261.109768,86.7839719 260.435563,87.5021461 260.003193,88.4108564 C259.285019,89.9314803 259.420593,91.6316478 260.219378,92.9727282 C260.695718,93.7825063 261.410228,94.4603748 262.322603,94.8890808 C263.231313,95.321451 264.213306,95.4423681 265.136673,95.2994661 C266.679282,95.0649602 268.082653,94.0902952 268.800827,92.5733354" id="Fill-302" fill="url(#linearGradient-1)"></path>
                    <path d="M166.954198,80.2980528 C168.101078,77.8687186 167.067787,74.9667085 164.634789,73.8198283 C162.205454,72.6692839 159.303444,73.7099037 158.156564,76.1392379 C157.00602,78.5649079 158.046639,81.4669179 160.475974,82.6174623 C162.908972,83.7680067 165.807318,82.7273869 166.954198,80.2980528" id="Fill-304" fill="url(#linearGradient-1)"></path>
                    <path d="M196.283553,94.1657768 C197.430433,91.7364426 196.393478,88.8344326 193.964144,87.6838882 C191.534809,86.537008 188.632799,87.5776277 187.485919,90.0069619 C186.335375,92.4326319 187.37233,95.334642 189.801665,96.4851863 C192.234663,97.6320666 195.136673,96.595111 196.283553,94.1657768" id="Fill-306" fill="url(#linearGradient-1)"></path>
                    <path d="M188.549257,72.5692525 C189.699801,70.1362542 188.659181,67.2379083 186.233511,66.0910281 C183.804177,64.9404837 180.905831,65.9811034 179.755287,68.4104376 C178.608407,70.8397718 179.645362,73.7417818 182.074696,74.8886621 C184.500366,76.0355423 187.402376,74.9985867 188.549257,72.5692525" id="Fill-308" fill="url(#linearGradient-1)"></path>
                    <path d="M174.683365,101.894943 C175.830245,99.4656093 174.793289,96.5635992 172.367619,95.416719 C169.938285,94.2698388 167.036275,95.3067944 165.889395,97.7361286 C164.742515,100.161799 165.77947,103.067473 168.208804,104.214353 C170.634474,105.361233 173.536485,104.320613 174.683365,101.894943" id="Fill-310" fill="url(#linearGradient-1)"></path>
                    <path d="M217.87678,86.4351445 C219.02366,84.0021461 217.986704,81.1038003 215.55737,79.9532559 C213.1317,78.8063756 210.233354,79.8469954 209.08281,82.2763296 C207.932265,84.7056637 208.969221,87.6076738 211.394891,88.754554 C213.827889,89.9014343 216.729899,88.8644786 217.87678,86.4351445" id="Fill-312" fill="url(#linearGradient-1)"></path>
                    <path d="M204.010888,115.760835 C205.157768,113.331501 204.120812,110.429491 201.691478,109.282611 C199.265808,108.135731 196.363798,109.172686 195.216918,111.602021 C194.070038,114.027691 195.103329,116.933365 197.528999,118.080245 C199.961997,119.230789 202.864008,118.186505 204.010888,115.760835" id="Fill-314" fill="url(#linearGradient-1)"></path>
                    <path d="M180.82009,50.9741939 C181.25246,50.0618195 181.373377,49.0834904 181.234139,48.1564594 C180.995969,46.6175147 180.021304,45.2141436 178.50068,44.4923053 C176.983721,43.7777952 175.279889,43.9133689 173.935144,44.7084904 C173.129031,45.1848304 172.451162,45.8993405 172.022456,46.8117148 C171.304282,48.3286746 171.439856,50.0325063 172.238641,51.3735867 C172.714981,52.1833647 173.429491,52.8612332 174.341866,53.2899393 C175.25424,53.7223095 176.232569,53.8468907 177.155936,53.7039887 C178.702209,53.4658187 180.101916,52.4911537 180.82009,50.9741939" id="Fill-316" fill="url(#linearGradient-1)"></path>
                    <path d="M210.147613,64.8400858 C210.579983,63.9277115 210.7009,62.9530465 210.557998,62.0223513 C210.319828,60.4834066 209.345163,59.0800356 207.828204,58.3618614 C206.311244,57.6436872 204.607412,57.7792609 203.266332,58.5743823 C202.456554,59.0543865 201.782349,59.7688966 201.349979,60.6812709 C200.631805,62.1982307 200.767379,63.8983982 201.566164,65.2431428 C202.042504,66.0492567 202.757014,66.7271252 203.669389,67.1594954 C204.578099,67.5882014 205.560092,67.7127827 206.483459,67.5698807 C208.026068,67.3317106 209.429439,66.3570456 210.147613,64.8400858" id="Fill-318" fill="url(#linearGradient-1)"></path>
                    <path d="M108.300984,52.5666353 C109.447864,50.1373011 108.414573,47.235291 105.981575,46.0884108 C103.55224,44.9378664 100.65023,45.974822 99.5033501,48.4041562 C98.3528057,50.8334904 99.3934255,53.7355004 101.82276,54.8860448 C104.255758,56.032925 107.154104,54.9959694 108.300984,52.5666353" id="Fill-320" fill="url(#linearGradient-1)"></path>
                    <path d="M137.630339,66.4325272 C138.777219,64.003193 137.740264,61.101183 135.31093,59.9543028 C132.881595,58.8037584 129.979585,59.8443781 128.832705,62.2737123 C127.685825,64.6993823 128.719116,67.6013924 131.148451,68.7519368 C133.581449,69.9024812 136.483459,68.8618614 137.630339,66.4325272" id="Fill-322" fill="url(#linearGradient-1)"></path>
                    <path d="M129.897508,44.8356365 C131.044389,42.4063023 130.007433,39.5042923 127.581763,38.3574121 C125.152429,37.2105318 122.250419,38.2474874 121.103539,40.6768216 C119.952994,43.1061558 120.98995,46.0081658 123.419284,47.1587102 C125.848618,48.3055905 128.750628,47.2649707 129.897508,44.8356365" id="Fill-324" fill="url(#linearGradient-1)"></path>
                    <path d="M116.030151,74.1631595 C117.177031,71.7338254 116.140075,68.8318153 113.714405,67.6849351 C111.285071,66.5343907 108.386725,67.5750105 107.236181,70.0043446 C106.089301,72.4300147 107.126256,75.3356889 109.55559,76.4825691 C111.98126,77.6294493 114.883271,76.5888296 116.030151,74.1631595" id="Fill-326" fill="url(#linearGradient-1)"></path>
                    <path d="M159.223566,58.7033606 C160.370446,56.2703622 159.33349,53.3720163 156.904156,52.2214719 C154.478486,51.0745917 151.58014,52.1115473 150.429596,54.5445456 C149.282716,56.9702157 150.316007,59.8758899 152.745341,61.0227701 C155.174675,62.1696503 158.076686,61.1326947 159.223566,58.7033606" id="Fill-328" fill="url(#linearGradient-1)"></path>
                    <path d="M145.357674,88.0290515 C146.504554,85.5997173 145.467598,82.6977073 143.038264,81.5508271 C140.612594,80.4002827 137.710584,81.4409024 136.563704,83.8702366 C135.416824,86.2959066 136.450115,89.2015808 138.875785,90.3484611 C141.308784,91.4953413 144.210794,90.4547215 145.357674,88.0290515" id="Fill-330" fill="url(#linearGradient-1)"></path>
                    <path d="M122.166876,23.2409443 C122.599246,22.3285699 122.720163,21.3539049 122.580925,20.426874 C122.342755,18.8842651 121.36809,17.4808941 119.847466,16.7627198 C118.330507,16.0445456 116.623011,16.1801193 115.28193,16.9752408 C114.475817,17.455245 113.797948,18.169755 113.369242,19.0821294 C112.651068,20.5990892 112.786642,22.2992567 113.585427,23.6440013 C114.061767,24.4501152 114.776277,25.1279837 115.688652,25.5603539 C116.601026,25.9890599 117.579355,26.1136411 118.502722,25.9707391 C120.048995,25.7325691 121.448702,24.7615683 122.166876,23.2409443" id="Fill-332" fill="url(#linearGradient-1)"></path>
                    <path d="M151.494399,37.1083019 C151.926769,36.1959276 152.047686,35.2175984 151.904784,34.2905674 C151.670278,32.7516227 150.691949,31.3482517 149.17499,30.6300775 C147.65803,29.9119033 145.954198,30.047477 144.613118,30.8425984 C143.80334,31.3189384 143.129135,32.0371126 142.696765,32.949487 C141.978591,34.4664468 142.114165,36.1666143 142.91295,37.5076947 C143.38929,38.3174728 144.1038,38.9953413 145.016175,39.4240473 C145.924885,39.8564175 146.906878,39.9809987 147.830245,39.8344326 C149.372854,39.5999267 150.776225,38.6252617 151.494399,37.1083019" id="Fill-334" fill="url(#linearGradient-1)"></path>
                    <path d="M78.9771252,38.7007433 C80.1240054,36.2714091 79.0870498,33.3693991 76.6577157,32.2188547 C76.3755758,32.0869451 76.0824435,31.988013 75.7929753,31.9147299 C73.741049,33.3290934 71.7221001,34.7837626 69.7324644,36.2897299 C69.6005549,38.2280674 70.6338463,40.1370917 72.4952366,41.0201528 C74.9282349,42.1670331 77.830245,41.1300775 78.9771252,38.7007433" id="Fill-336" fill="url(#linearGradient-1)"></path>
                    <path d="M55.0615578,48.7218384 C55.9482831,48.3004606 56.706763,47.6152638 57.2087521,46.7065536 C56.4869137,47.3697655 55.7760678,48.047634 55.0615578,48.7218384" id="Fill-338" fill="url(#linearGradient-1)"></path>
                    <path d="M100.569985,30.9697446 C101.716866,28.5367462 100.67991,25.6384003 98.2505758,24.4915201 C95.8249058,23.3446399 92.9265599,24.3815955 91.7760155,26.8109296 C90.6254711,29.2402638 91.6624267,32.1422739 94.0917609,33.2891541 C96.5210951,34.4396985 99.4231051,33.3990787 100.569985,30.9697446" id="Fill-340" fill="url(#linearGradient-1)"></path>
                    <path d="M86.7044598,60.297634 C87.85134,57.8682998 86.8143844,54.9662898 84.3850503,53.8157454 C81.9593802,52.6688652 79.0573702,53.7094849 77.9104899,56.1388191 C76.7636097,58.5644891 77.7969012,61.4701633 80.2225712,62.6170436 C82.6555695,63.7639238 85.5575796,62.723304 86.7044598,60.297634" id="Fill-342" fill="url(#linearGradient-1)"></path>
                    <path d="M253.339196,49.3784548 C254.486076,46.9491206 253.452785,44.0507747 251.023451,42.9002303 C248.590452,41.7496859 245.692106,42.7903057 244.541562,45.2196399 C243.394682,47.6453099 244.431637,50.5509841 246.860972,51.6978643 C249.29397,52.8484087 252.192316,51.8077889 253.339196,49.3784548" id="Fill-348" fill="url(#linearGradient-1)"></path>
                    <path d="M282.666719,63.2458124 C283.813599,60.8164782 282.776644,57.9144682 280.347309,56.7675879 C277.917975,55.6170436 275.019629,56.6576633 273.869085,59.0869975 C272.722205,61.5126675 273.755496,64.4146776 276.188495,65.5652219 C278.617829,66.7121022 281.519839,65.6751466 282.666719,63.2458124" id="Fill-350" fill="url(#linearGradient-1)"></path>
                    <path d="M274.93572,41.647456 C276.082601,39.2181219 275.045645,36.3161118 272.619975,35.1692316 C270.190641,34.0186872 267.288631,35.059307 266.14175,37.4886411 C264.991206,39.9179753 266.028162,42.8199853 268.457496,43.9668656 C270.88683,45.11741 273.785176,44.0767902 274.93572,41.647456" id="Fill-352" fill="url(#linearGradient-1)"></path>
                    <path d="M261.068363,70.9768111 C262.218907,68.5438128 261.181951,65.6454669 258.752617,64.4985867 C256.323283,63.3480423 253.424937,64.3849979 252.274393,66.8179962 C251.127513,69.2436662 252.164468,72.1493405 254.590138,73.2962207 C257.023137,74.4431009 259.921482,73.4024812 261.068363,70.9768111" id="Fill-354" fill="url(#linearGradient-1)"></path>
                    <path d="M290.394054,84.8427031 C291.544598,82.4097048 290.503978,79.5113589 288.074644,78.3608145 C285.648974,77.2139343 282.750628,78.254554 281.603748,80.6838882 C280.453204,83.1095582 281.490159,86.0152324 283.915829,87.1621126 C286.345163,88.3089929 289.247173,87.2683731 290.394054,84.8427031" id="Fill-358" fill="url(#linearGradient-1)"></path>
                    <path d="M194.685982,21.6466709 C195.832862,19.2173367 194.799571,16.3153266 192.366572,15.1684464 C189.937238,14.017902 187.035228,15.0585218 185.888348,17.4878559 C184.737804,19.913526 185.778423,22.815536 188.207758,23.9660804 C190.640756,25.1166248 193.539102,24.076005 194.685982,21.6466709" id="Fill-360" fill="url(#linearGradient-1)"></path>
                    <path d="M224.013505,35.5143949 C225.160385,33.0850607 224.12343,30.1830507 221.694095,29.0325063 C219.264761,27.885626 216.366415,28.9262458 215.215871,31.35558 C214.068991,33.78125 215.102282,36.6832601 217.535281,37.8338044 C219.964615,38.9806847 222.866625,37.9437291 224.013505,35.5143949" id="Fill-362" fill="url(#linearGradient-1)"></path>
                    <path d="M216.282506,13.9156721 C217.429387,11.4863379 216.392431,8.58432789 213.966761,7.43744765 C211.537427,6.28690327 208.635417,7.32752303 207.488536,9.7568572 C206.337992,12.1861914 207.374948,15.0882014 209.804282,16.2350817 C212.233616,17.3819619 215.135626,16.3450063 216.282506,13.9156721" id="Fill-364" fill="url(#linearGradient-1)"></path>
                    <path d="M202.415149,43.2435616 C203.565693,40.8105632 202.525073,37.9122173 200.099403,36.7653371 C197.670069,35.6184569 194.771723,36.6554125 193.621179,39.0847466 C192.474299,41.5104167 193.511254,44.4160909 195.936924,45.5629711 C198.366258,46.7135155 201.268268,45.6692316 202.415149,43.2435616" id="Fill-366" fill="url(#linearGradient-1)"></path>
                    <path d="M245.608197,27.7815641 C246.755077,25.3522299 245.718122,22.4502198 243.288788,21.3033396 C240.863118,20.1527952 237.964772,21.193415 236.814227,23.6227492 C235.663683,26.0520833 236.704303,28.9540934 239.129973,30.1009736 C241.559307,31.2478539 244.461317,30.2108982 245.608197,27.7815641" id="Fill-368" fill="url(#linearGradient-1)"></path>
                    <path d="M231.74084,57.1090871 C232.891384,54.6797529 231.850764,51.7777429 229.42143,50.6308626 C226.99576,49.4839824 224.097414,50.520938 222.94687,52.9502722 C221.79999,55.3759422 222.836945,58.2816164 225.262615,59.4284966 C227.691949,60.579041 230.593959,59.5384213 231.74084,57.1090871" id="Fill-370" fill="url(#linearGradient-1)"></path>
                    <path d="M165.360291,7.78077889 C166.485186,5.40640704 165.506857,2.58867253 163.187448,1.38682998 C161.483616,1.50408291 159.787113,1.63232831 158.090609,1.79721524 C157.460375,2.26256281 156.921744,2.86348409 156.562657,3.62196399 C155.415777,6.047634 156.449068,8.94964405 158.882067,10.1001884 C161.311401,11.2507328 164.213411,10.2101131 165.360291,7.78077889" id="Fill-372" fill="url(#linearGradient-1)"></path>
                    <path d="M143.761568,15.5117776 C144.912113,13.0787793 143.871493,10.1804334 141.445823,9.03355318 C139.016489,7.88300879 136.118143,8.92362856 134.967598,11.3529627 C133.820718,13.7786327 134.857674,16.684307 137.287008,17.8311872 C139.712678,18.9780674 142.614688,17.9374477 143.761568,15.5117776" id="Fill-374" fill="url(#linearGradient-1)"></path>
                    <g id="Group-378" transform="translate(178.543551, 0.470059)">
                        <mask id="mask-5" fill="white">
                            <use xlink:href="#path-4"></use>
                        </mask>
                        <g id="Clip-377"></g>
                        <path d="M7.46681323,0.898450586 C5.06312814,0.744556114 2.6631072,0.638295645 0.266750419,0.583333333 C0.710113065,1.12196399 1.25973618,1.57998325 1.93394054,1.89876466 C3.85395729,2.80747487 6.0561139,2.33113484 7.46681323,0.898450586" id="Fill-376" fill="url(#linearGradient-1)" mask="url(#mask-5)"></path>
                    </g>
                    <path d="M173.089091,29.3776696 C174.235972,26.9446713 173.199016,24.0463254 170.769682,22.8994451 C168.344012,21.7525649 165.442002,22.7895205 164.295121,25.2188547 C163.148241,27.6445247 164.181533,30.5501989 166.607203,31.6970791 C169.040201,32.8439594 171.942211,31.8033396 173.089091,29.3776696" id="Fill-379" fill="url(#linearGradient-1)"></path>
                </g>
            </g>
        </g>
    </g>
</svg>