<?xml version="1.0" encoding="UTF-8"?>
<svg width="230px" height="274px" viewBox="0 0 230 274" version="1.1" xmlns="http://www.w3.org/2000/svg" xmlns:xlink="http://www.w3.org/1999/xlink">
    <!-- Generator: Sketch 52.6 (67491) - http://www.bohemiancoding.com/sketch -->
    <title>img-top-1@2x</title>
    <desc>Created with Sketch.</desc>
    <defs>
        <linearGradient x1="-0.0001412894%" y1="49.9999162%" x2="99.9997152%" y2="49.9999162%" id="linearGradient-1">
            <stop stop-color="#6740FF" offset="0%"></stop>
            <stop stop-color="#CB5DFF" offset="100%"></stop>
        </linearGradient>
    </defs>
    <g id="Updated-on-31-12-19" stroke="none" stroke-width="1" fill="none" fill-rule="evenodd" opacity="0.388020833">
        <g id="01" fill="url(#linearGradient-1)">
            <g id="img-top-1" transform="translate(-119.000000, -75.000000)">
                <path d="M187.200115,341.048786 C187.632485,340.136411 187.753402,339.158082 187.6105,338.231051 C187.37233,336.692106 186.40133,335.288735 184.880706,334.566897 C183.363746,333.852387 181.659914,333.987961 180.31517,334.783082 C179.505392,335.259422 178.831187,335.977596 178.402481,336.886307 C177.827209,338.102806 177.80156,339.432894 178.219273,340.605423 C178.640651,341.777952 179.505392,342.792923 180.721891,343.364531 C181.93839,343.939803 183.272142,343.965452 184.444671,343.551403 C185.613536,343.126361 186.624843,342.261621 187.200115,341.048786" id="Fill-1"></path>
                <path d="M136.276068,334.910595 C137.422948,332.477596 136.389657,329.57925 133.960322,328.43237 C131.530988,327.281826 128.632642,328.322446 127.482098,330.75178 C126.331554,333.181114 127.368509,336.083124 129.797843,337.230004 C132.227178,338.380549 135.129188,337.339929 136.276068,334.910595" id="Fill-5"></path>
                <path d="M156.808155,344.618405 C156.29151,345.713987 156.236547,346.904837 156.537008,347.989426 C159.567263,348.308208 162.597519,348.553706 165.62411,348.711265 C166.727021,346.292923 165.690065,343.434883 163.282716,342.298995 C160.857046,341.152115 157.9587,342.185406 156.808155,344.618405" id="Fill-7"></path>
                <path d="M128.545069,313.315536 C128.977439,312.403162 129.102021,311.428497 128.959119,310.497802 C128.720948,308.958857 127.746284,307.555486 126.229324,306.837312 C124.7087,306.119137 123.004868,306.254711 121.663788,307.049832 C120.85401,307.526173 120.176141,308.244347 119.747435,309.156721 C119.172163,310.369556 119.146514,311.699644 119.567892,312.875838 C119.985605,314.044703 120.85401,315.059673 122.066845,315.634946 C123.283344,316.206554 124.617096,316.235867 125.789625,315.818153 C126.962155,315.393111 127.969797,314.528371 128.545069,313.315536" id="Fill-9"></path>
                <path d="M157.874424,327.181428 C158.30313,326.272718 158.427711,325.294389 158.284809,324.367358 C158.046639,322.824749 157.075639,321.421378 155.555015,320.703204 C154.038055,319.985029 152.330559,320.120603 150.989479,320.915724 C150.183365,321.395729 149.505496,322.110239 149.07679,323.022613 C148.501518,324.235448 148.475869,325.5692 148.893582,326.741729 C149.31496,327.910595 150.179701,328.925565 151.3962,329.500838 C152.609035,330.07611 153.942787,330.101759 155.115316,329.684045 C156.287845,329.262668 157.299152,328.397927 157.874424,327.181428" id="Fill-11"></path>
                <path d="M273.585113,310.129188 C274.731993,307.696189 273.695038,304.797843 271.265704,303.650963 C268.836369,302.500419 265.934359,303.537374 264.787479,305.966709 C263.783501,308.091918 264.450377,310.579879 266.264133,311.935616 C266.520624,312.129816 266.802764,312.302031 267.106889,312.444933 C267.411013,312.587835 267.722466,312.69776 268.037584,312.774707 C270.232412,313.313338 272.581135,312.250733 273.585113,310.129188" id="Fill-27"></path>
                <path d="M201.066007,311.721263 C202.212887,309.291928 201.175932,306.389918 198.746598,305.243038 C196.317263,304.092494 193.415253,305.133113 192.268373,307.562448 C191.117829,309.988118 192.158448,312.890128 194.587783,314.040672 C197.017117,315.187552 199.919127,314.150597 201.066007,311.721263" id="Fill-29"></path>
                <path d="M230.39353,325.587155 C231.54041,323.15782 230.503455,320.25581 228.074121,319.10893 C225.644786,317.958386 222.742776,318.999005 221.595896,321.42834 C220.449016,323.85401 221.482307,326.75602 223.915306,327.906564 C226.34464,329.057108 229.24665,328.016489 230.39353,325.587155" id="Fill-31"></path>
                <path d="M222.660699,303.988798 C223.80758,301.559464 222.770624,298.657454 220.344954,297.510574 C217.91562,296.363693 215.01361,297.400649 213.866729,299.829983 C212.719849,302.259317 213.753141,305.161327 216.182475,306.311872 C218.611809,307.458752 221.513819,306.418132 222.660699,303.988798" id="Fill-33"></path>
                <path d="M208.793342,333.318153 C209.943886,330.885155 208.90693,327.986809 206.48126,326.836265 C204.051926,325.689384 201.149916,326.730004 199.999372,329.159338 C198.852492,331.585008 199.889447,334.490683 202.318781,335.637563 C204.744451,336.784443 207.650126,335.743823 208.793342,333.318153" id="Fill-35"></path>
                <path d="M251.986757,317.85469 C253.137301,315.425356 252.096681,312.523346 249.667347,311.376466 C247.241677,310.229585 244.343331,311.270205 243.196451,313.699539 C242.045907,316.125209 243.082862,319.027219 245.508532,320.177764 C247.937866,321.324644 250.839876,320.284024 251.986757,317.85469" id="Fill-37"></path>
                <path d="M214.931899,282.397404 C216.082443,279.964405 215.041824,277.066059 212.61249,275.915515 C210.183155,274.768635 207.281145,275.80559 206.134265,278.234925 C205.130287,280.35647 205.797163,282.848095 207.607255,284.203832 C207.86741,284.398032 208.14955,284.570247 208.453675,284.713149 C208.757799,284.856051 209.069253,284.965976 209.38437,285.042923 C211.579198,285.581554 213.927921,284.518949 214.931899,282.397404" id="Fill-39"></path>
                <path d="M244.259422,296.263296 C245.406302,293.830297 244.369347,290.931951 241.940013,289.781407 C239.510678,288.634527 236.608668,289.671482 235.461788,292.104481 C234.45781,294.226026 235.124686,296.713987 236.934778,298.069724 C237.194933,298.263924 237.477073,298.436139 237.781198,298.579041 C238.081658,298.721943 238.396776,298.831868 238.711893,298.908815 C240.906721,299.447446 243.255444,298.384841 244.259422,296.263296" id="Fill-41"></path>
                <path d="M142.412793,283.988013 C143.559673,281.558679 142.522718,278.660333 140.093384,277.509789 C137.664049,276.359244 134.762039,277.399864 133.615159,279.829198 C132.464615,282.254868 133.50157,285.156878 135.934569,286.307423 C138.363903,287.457967 141.265913,286.417347 142.412793,283.988013" id="Fill-43"></path>
                <path d="M171.740316,297.855737 C172.887196,295.426403 171.850241,292.524393 169.420907,291.377513 C166.991572,290.226968 164.089562,291.267588 162.942682,293.696922 C161.795802,296.122592 162.829093,299.024602 165.262092,300.175147 C167.691426,301.322027 170.593436,300.285071 171.740316,297.855737" id="Fill-45"></path>
                <path d="M164.007485,276.257014 C165.154366,273.82768 164.121074,270.92567 161.69174,269.77879 C159.262406,268.628245 156.360396,269.668865 155.213515,272.098199 C154.066635,274.527534 155.099927,277.429544 157.529261,278.580088 C159.958595,279.726968 162.860605,278.686348 164.007485,276.257014" id="Fill-47"></path>
                <path d="M150.141593,305.584537 C151.288474,303.155203 150.255182,300.253193 147.825848,299.106313 C145.396514,297.955768 142.494504,298.996388 141.347624,301.425722 C140.200743,303.851392 141.234035,306.757067 143.663369,307.907611 C146.092703,309.054491 148.994713,308.010207 150.141593,305.584537" id="Fill-49"></path>
                <path d="M193.335008,290.122906 C194.481889,287.693572 193.444933,284.791562 191.015599,283.644682 C188.589929,282.497802 185.691583,283.538421 184.541039,285.967755 C183.394158,288.393425 184.42745,291.295436 186.85312,292.442316 C189.286118,293.59286 192.188128,292.55224 193.335008,290.122906" id="Fill-51"></path>
                <path d="M179.467651,319.452261 C180.618195,317.019263 179.577575,314.117253 177.148241,312.970373 C174.722571,311.823492 171.824225,312.864112 170.673681,315.293446 C169.526801,317.719116 170.563756,320.624791 172.989426,321.771671 C175.41876,322.918551 178.320771,321.877931 179.467651,319.452261" id="Fill-53"></path>
                <path d="M156.276853,254.664154 C157.427397,252.231156 156.390442,249.33281 153.961108,248.18593 C151.528109,247.035385 148.629763,248.072341 147.479219,250.505339 C146.475241,252.626884 147.142117,255.114845 148.955873,256.470582 C149.216028,256.664782 149.494504,256.836997 149.798629,256.983564 C150.102753,257.126466 150.417871,257.232726 150.729324,257.309673 C152.927816,257.848304 155.272875,256.785699 156.276853,254.664154" id="Fill-55"></path>
                <path d="M185.606208,268.52968 C186.753088,266.096681 185.716133,263.198335 183.286799,262.051455 C180.857464,260.900911 177.959119,261.937866 176.808574,264.370865 C175.804596,266.49241 176.471472,268.980371 178.281564,270.336108 C178.541719,270.530308 178.823859,270.702523 179.127984,270.849089 C179.428444,270.991991 179.743562,271.098252 180.055015,271.175199 C182.253507,271.717494 184.60223,270.654889 185.606208,268.52968" id="Fill-57"></path>
                <path d="M134.681794,262.391122 C135.828675,259.961788 134.791719,257.059778 132.362385,255.909234 C129.936715,254.762353 127.034705,255.802973 125.887825,258.232307 C124.73728,260.661642 125.774236,263.563652 128.199906,264.710532 C130.632904,265.861076 133.534914,264.820456 134.681794,262.391122" id="Fill-67"></path>
                <path d="M120.81407,291.719012 C121.964615,289.286013 120.923995,286.387668 118.494661,285.237123 C116.068991,284.090243 113.170645,285.130863 112.020101,287.560197 C110.87322,289.985867 111.910176,292.891541 114.335846,294.038421 C116.76518,295.188966 119.66719,294.144682 120.81407,291.719012" id="Fill-69"></path>
                <path d="M126.952628,240.798262 C128.099508,238.365264 127.062552,235.466918 124.633218,234.320038 C122.203884,233.169493 119.305538,234.206449 118.154994,236.639447 C117.151015,238.760992 117.817892,241.248953 119.627984,242.60469 C119.888139,242.79889 120.166614,242.971106 120.474403,243.114008 C120.774864,243.260574 121.089981,243.366834 121.401434,243.443781 C123.599927,243.982412 125.948649,242.919807 126.952628,240.798262" id="Fill-73"></path>
                <path d="M287.451005,280.801665 C288.601549,278.368666 287.56093,275.47032 285.131595,274.32344 C282.702261,273.172896 279.800251,274.209851 278.653371,276.64285 C277.502827,279.06852 278.543446,281.974194 280.972781,283.121074 C283.402115,284.271619 286.304125,283.230999 287.451005,280.801665" id="Fill-95"></path>
                <path d="M309.045697,273.070666 C310.192577,270.641332 309.159286,267.739322 306.729952,266.592441 C304.300618,265.441897 301.402272,266.482517 300.251727,268.911851 C299.104847,271.341185 300.138139,274.243195 302.571137,275.390075 C305.000471,276.536956 307.898817,275.5 309.045697,273.070666" id="Fill-97"></path>
                <path d="M295.622069,300.113589 C295.545121,298.365787 294.552136,296.716918 292.866625,295.918132 C290.433626,294.771252 287.535281,295.808208 286.384736,298.237542 C285.24152,300.663212 286.274812,303.568886 288.704146,304.71943 C289.198807,304.950272 289.711788,305.074853 290.22477,305.13348 C292.060511,303.506595 293.852282,301.821085 295.622069,300.113589" id="Fill-99"></path>
                <path d="M301.316897,251.475607 C301.749267,250.563233 301.873848,249.588568 301.730946,248.657873 C301.492776,247.115264 300.518111,245.715557 298.997487,244.997383 C297.480528,244.279209 295.776696,244.414782 294.431951,245.209904 C293.625838,245.689908 292.947969,246.404418 292.519263,247.313128 C291.372383,249.742462 292.409338,252.644472 294.838673,253.791353 C297.268007,254.941897 300.170017,253.901277 301.316897,251.475607" id="Fill-101"></path>
                <path d="M323.759841,259.076162 C322.953727,259.556166 322.275858,260.270676 321.847152,261.183051 C320.978748,263.018792 321.363484,265.122016 322.653266,266.53638 C324.269158,263.923838 325.82276,261.256334 327.31407,258.533867 C326.082915,258.251727 324.815117,258.453256 323.759841,259.076162" id="Fill-103"></path>
                <path d="M228.797791,253.069881 C229.948335,250.636882 228.907716,247.738536 226.478381,246.591656 C224.049047,245.441112 221.147037,246.478067 220.000157,248.911066 C218.849613,251.336736 219.890232,254.238746 222.319567,255.38929 C224.748901,256.53617 227.650911,255.499215 228.797791,253.069881" id="Fill-105"></path>
                <path d="M258.125314,266.935773 C259.272194,264.502774 258.235239,261.604428 255.805905,260.457548 C253.37657,259.307004 250.478224,260.343959 249.32768,262.776958 C248.1808,265.202628 249.214091,268.104638 251.643425,269.255182 C254.076424,270.402062 256.978434,269.365107 258.125314,266.935773" id="Fill-107"></path>
                <path d="M250.392483,245.337416 C251.539363,242.908082 250.502408,240.006072 248.076738,238.859192 C245.647404,237.712312 242.745394,238.749267 241.598513,241.178601 C240.451633,243.607936 241.488589,246.509946 243.917923,247.656826 C246.343593,248.80737 249.245603,247.76675 250.392483,245.337416" id="Fill-109"></path>
                <path d="M236.526591,274.664939 C237.673472,272.235605 236.636516,269.333595 234.210846,268.186715 C231.781512,267.03617 228.879502,268.07679 227.732621,270.506124 C226.585741,272.931794 227.619033,275.837469 230.048367,276.984349 C232.477701,278.131229 235.379711,277.090609 236.526591,274.664939" id="Fill-111"></path>
                <path d="M279.718174,259.204774 C280.868719,256.77544 279.828099,253.87343 277.398765,252.722885 C274.973095,251.576005 272.074749,252.616625 270.927869,255.045959 C269.777324,257.475293 270.81428,260.373639 273.23995,261.524183 C275.669284,262.671064 278.571294,261.634108 279.718174,259.204774" id="Fill-113"></path>
                <path d="M265.852282,288.530465 C266.999162,286.101131 265.962207,283.199121 263.532873,282.05224 C261.107203,280.901696 258.208857,281.942316 257.061977,284.37165 C255.911432,286.79732 256.948388,289.702994 259.374058,290.849874 C261.803392,291.996755 264.705402,290.956135 265.852282,288.530465" id="Fill-115"></path>
                <path d="M242.665149,223.74419 C243.097519,222.831815 243.218436,221.853486 243.075534,220.926455 C242.837364,219.383846 241.862699,217.984139 240.345739,217.262301 C238.825115,216.547791 237.121284,216.683365 235.780203,217.478486 C234.970425,217.954826 234.296221,218.669336 233.863851,219.581711 C232.71697,222.007381 233.75759,224.913055 236.18326,226.059935 C238.616258,227.210479 241.518268,226.16986 242.665149,223.74419" id="Fill-117"></path>
                <path d="M271.99084,237.610082 C272.42321,236.697707 272.544127,235.719378 272.404889,234.792347 C272.163055,233.249738 271.192054,231.850031 269.67143,231.128193 C268.15447,230.413683 266.450639,230.549257 265.105894,231.344378 C264.29978,231.824382 263.621912,232.538892 263.193206,233.451267 C262.046325,235.876937 263.079617,238.778947 265.512615,239.925827 C267.941949,241.076371 270.843959,240.035752 271.99084,237.610082" id="Fill-119"></path>
                <path d="M170.144211,225.336631 C171.291091,222.903633 170.254135,220.005287 167.824801,218.858407 C165.395467,217.707862 162.497121,218.744818 161.346577,221.177816 C160.196032,223.603486 161.232988,226.505496 163.665986,227.656041 C166.09532,228.806585 168.99733,227.765965 170.144211,225.336631" id="Fill-121"></path>
                <path d="M199.471734,239.203989 C200.618614,236.77099 199.581658,233.872644 197.152324,232.725764 C194.72299,231.57522 191.824644,232.612175 190.6741,235.045174 C189.527219,237.470844 190.560511,240.372854 192.989845,241.523398 C195.422843,242.670278 198.324853,241.633323 199.471734,239.203989" id="Fill-123"></path>
                <path d="M191.739269,217.605632 C192.886149,215.176298 191.852858,212.274288 189.423524,211.127408 C186.99419,209.980528 184.09218,211.017483 182.945299,213.446817 C181.798419,215.876152 182.835375,218.778162 185.264709,219.925042 C187.694043,221.075586 190.592389,220.034966 191.739269,217.605632" id="Fill-125"></path>
                <path d="M177.873377,246.931323 C179.020258,244.501989 177.983302,241.603643 175.557632,240.453099 C173.128298,239.306219 170.226288,240.343174 169.079407,242.772508 C167.932527,245.198178 168.965819,248.103853 171.395153,249.254397 C173.824487,250.401277 176.726497,249.360657 177.873377,246.931323" id="Fill-127"></path>
                <path d="M221.066792,231.471524 C222.213673,229.04219 221.176717,226.14018 218.747383,224.9933 C216.321713,223.84642 213.423367,224.883375 212.272822,227.312709 C211.125942,229.742044 212.159234,232.644054 214.584904,233.790934 C217.017902,234.941478 219.919912,233.900858 221.066792,231.471524" id="Fill-129"></path>
                <path d="M207.199068,260.799047 C208.345948,258.369713 207.308993,255.467703 204.879659,254.317159 C202.453989,253.170278 199.555643,254.210898 198.408763,256.640232 C197.258218,259.065902 198.295174,261.971577 200.720844,263.118457 C203.150178,264.265337 206.052188,263.224717 207.199068,260.799047" id="Fill-131"></path>
                <path d="M184.010103,196.010574 C184.442473,195.098199 184.56339,194.123534 184.420488,193.192839 C184.185982,191.653894 183.211317,190.250523 181.690693,189.532349 C180.173733,188.814175 178.469902,188.949749 177.125157,189.74487 C176.319043,190.224874 175.641175,190.939384 175.212469,191.851759 C174.065588,194.277429 175.102544,197.179439 177.531878,198.329983 C179.964876,199.476863 182.863222,198.436244 184.010103,196.010574" id="Fill-133"></path>
                <path d="M213.337626,209.876466 C213.769996,208.964091 213.890913,207.989426 213.751675,207.062395 C213.513505,205.519786 212.53884,204.116415 211.018216,203.398241 C209.501256,202.680067 207.797425,202.815641 206.45268,203.614426 C205.646566,204.090766 204.972362,204.805276 204.539992,205.717651 C203.393111,208.143321 204.426403,211.045331 206.859401,212.195875 C209.288735,213.342755 212.190745,212.3058 213.337626,209.876466" id="Fill-135"></path>
                <path d="M140.81852,211.472571 C141.9654,209.039573 140.928444,206.141227 138.49911,204.990683 C136.069776,203.843802 133.17143,204.880758 132.020886,207.313756 C130.874005,209.739426 131.907297,212.641436 134.340295,213.791981 C136.769629,214.938861 139.671639,213.901905 140.81852,211.472571" id="Fill-139"></path>
                <path d="M133.086055,189.873848 C134.232936,187.444514 133.19598,184.542504 130.77031,183.395624 C128.340976,182.24508 125.44263,183.285699 124.292085,185.715034 C123.145205,188.140704 124.182161,191.046378 126.611495,192.193258 C129.037165,193.340138 131.939175,192.303183 133.086055,189.873848" id="Fill-141"></path>
                <path d="M119.220163,219.199539 C120.367044,216.770205 119.330088,213.868195 116.904418,212.721315 C114.475084,211.574435 111.573074,212.61139 110.426193,215.040724 C109.279313,217.466394 110.312605,220.372069 112.741939,221.518949 C115.171273,222.669493 118.073283,221.625209 119.220163,219.199539" id="Fill-143"></path>
                <path d="M162.411746,203.73974 C163.562291,201.310406 162.521671,198.408396 160.092337,197.261516 C157.666667,196.110972 154.768321,197.151591 153.617776,199.580925 C152.470896,202.01026 153.507852,204.91227 155.933522,206.05915 C158.362856,207.20603 161.264866,206.169075 162.411746,203.73974" id="Fill-145"></path>
                <path d="M148.545854,233.065431 C149.692735,230.636097 148.655779,227.734087 146.226445,226.587207 C143.800775,225.440327 140.902429,226.477282 139.751884,228.906616 C138.605004,231.332286 139.64196,234.237961 142.06763,235.384841 C144.496964,236.535385 147.398974,235.491101 148.545854,233.065431" id="Fill-147"></path>
                <path d="M125.356889,168.277324 C125.789259,167.36495 125.910176,166.390285 125.767274,165.463254 C125.532768,163.920645 124.558103,162.517274 123.037479,161.7991 C121.520519,161.080925 119.816688,161.216499 118.471943,162.015285 C117.665829,162.491625 116.987961,163.206135 116.55559,164.118509 C115.40871,166.544179 116.44933,169.446189 118.878664,170.596734 C121.311662,171.743614 124.210008,170.706658 125.356889,168.277324" id="Fill-149"></path>
                <path d="M154.684412,182.145048 C155.116782,181.232674 155.237699,180.258009 155.094797,179.327314 C154.860291,177.784705 153.881962,176.384998 152.365002,175.666824 C150.848042,174.948649 149.144211,175.084223 147.799466,175.879345 C146.993352,176.359349 146.319148,177.073859 145.886778,177.986233 C144.739897,180.411903 145.773189,183.313913 148.206187,184.460794 C150.635521,185.611338 153.537531,184.570718 154.684412,182.145048" id="Fill-151"></path>
                <path d="M315.184255,222.149916 C316.331135,219.720582 315.294179,216.818572 312.864845,215.668028 C310.435511,214.521147 307.533501,215.558103 306.382956,217.987437 C305.236076,220.416771 306.273032,223.318781 308.702366,224.469326 C311.135364,225.616206 314.037374,224.57925 315.184255,222.149916" id="Fill-182"></path>
                <path d="M335.713044,231.85626 C334.745708,233.897194 335.339301,236.260574 336.991834,237.649288 C338.09108,234.805905 339.113379,231.951528 340.055067,229.08616 C338.255967,229.108145 336.533815,230.115787 335.713044,231.85626" id="Fill-184"></path>
                <path d="M336.777481,214.419284 C337.924361,211.986286 336.887406,209.08794 334.461736,207.941059 C332.032402,206.790515 329.134056,207.831135 327.983511,210.260469 C326.836631,212.689803 327.869923,215.591813 330.302921,216.738693 C332.728591,217.885574 335.630601,216.848618 336.777481,214.419284" id="Fill-186"></path>
                <path d="M322.911589,243.743143 C324.058469,241.313809 323.025178,238.411799 320.599508,237.264918 C318.16651,236.118038 315.268164,237.158658 314.117619,239.584328 C312.970739,242.013662 314.004031,244.915672 316.437029,246.066216 C318.862699,247.213097 321.764709,246.172477 322.911589,243.743143" id="Fill-188"></path>
                <path d="M329.048314,192.824225 C329.480685,191.911851 329.605266,190.933522 329.462364,190.006491 C329.224194,188.463882 328.249529,187.060511 326.728905,186.342337 C325.211945,185.624162 323.508113,185.7634 322.163369,186.558522 C321.357255,187.034862 320.679387,187.753036 320.25068,188.661746 C319.1038,191.087416 320.140756,193.989426 322.57009,195.139971 C325.003088,196.286851 327.905098,195.249895 329.048314,192.824225" id="Fill-190"></path>
                <path d="M256.531041,194.416667 C257.677921,191.987332 256.640965,189.085322 254.211631,187.938442 C251.782297,186.787898 248.880287,187.828518 247.729742,190.257852 C246.582862,192.683522 247.619818,195.585532 250.049152,196.736076 C252.48215,197.882956 255.38416,196.846001 256.531041,194.416667" id="Fill-192"></path>
                <path d="M285.856732,208.282559 C287.003612,205.853224 285.966656,202.951214 283.537322,201.804334 C281.107988,200.65379 278.209642,201.69441 277.059098,204.123744 C275.912217,206.549414 276.945509,209.451424 279.378507,210.601968 C281.807841,211.752513 284.709851,210.711893 285.856732,208.282559" id="Fill-194"></path>
                <path d="M278.124267,186.685668 C279.271147,184.25267 278.234192,181.354324 275.808522,180.207443 C273.379188,179.060563 270.480842,180.097519 269.330297,182.526853 C268.179753,184.956187 269.216709,187.858197 271.646043,189.005077 C274.075377,190.155622 276.977387,189.115002 278.124267,186.685668" id="Fill-196"></path>
                <path d="M264.258375,216.011359 C265.405255,213.582025 264.3683,210.680015 261.94263,209.533134 C259.513296,208.38259 256.611286,209.42321 255.464405,211.852544 C254.317525,214.281878 255.350817,217.183888 257.780151,218.334433 C260.209485,219.481313 263.111495,218.440693 264.258375,216.011359" id="Fill-198"></path>
                <path d="M307.449958,200.55156 C308.600503,198.122226 307.559883,195.220216 305.130549,194.073335 C302.704879,192.926455 299.806533,193.963411 298.655988,196.396409 C297.509108,198.822079 298.546064,201.724089 300.971734,202.870969 C303.401068,204.021514 306.303078,202.980894 307.449958,200.55156" id="Fill-200"></path>
                <path d="M293.585898,229.877251 C294.732778,227.447917 293.695823,224.545907 291.266489,223.399026 C288.840819,222.248482 285.942473,223.289102 284.791928,225.718436 C283.645048,228.14777 284.67834,231.04978 287.10401,232.19666 C289.537008,233.347205 292.439018,232.306585 293.585898,229.877251" id="Fill-202"></path>
                <path d="M270.395101,165.092441 C270.827471,164.180067 270.948388,163.201738 270.805486,162.274707 C270.57098,160.732098 269.596315,159.328727 268.079355,158.610553 C266.558731,157.892379 264.854899,158.027952 263.510155,158.826738 C262.704041,159.303078 262.026173,160.017588 261.597466,160.929962 C260.450586,163.355632 261.487542,166.257642 263.916876,167.408187 C266.349874,168.555067 269.251884,167.518111 270.395101,165.092441" id="Fill-204"></path>
                <path d="M299.722624,178.958333 C300.154994,178.045959 300.275911,177.06763 300.136673,176.140599 C299.894839,174.59799 298.923838,173.194619 297.403214,172.476445 C295.886254,171.758271 294.182423,171.893844 292.837678,172.69263 C292.031564,173.16897 291.353696,173.887144 290.92499,174.799518 C289.778109,177.221524 290.815065,180.123534 293.244399,181.274079 C295.673733,182.420959 298.575743,181.384003 299.722624,178.958333" id="Fill-206"></path>
                <path d="M197.875995,166.683051 C199.022875,164.253716 197.985919,161.355371 195.556585,160.204826 C193.127251,159.054282 190.225241,160.094902 189.078361,162.524236 C187.93148,164.949906 188.968436,167.851916 191.39777,169.00246 C193.827104,170.153005 196.729114,169.112385 197.875995,166.683051" id="Fill-208"></path>
                <path d="M227.203518,180.550775 C228.350398,178.121441 227.313442,175.21943 224.884108,174.07255 C222.454774,172.922006 219.556428,173.962626 218.405884,176.39196 C217.259003,178.81763 218.292295,181.71964 220.725293,182.870184 C223.154627,184.017064 226.056637,182.980109 227.203518,180.550775" id="Fill-210"></path>
                <path d="M219.470687,158.95425 C220.617567,156.521252 219.584276,153.622906 217.154941,152.476026 C214.725607,151.325482 211.827261,152.366101 210.676717,154.795436 C209.526173,157.22477 210.563128,160.12678 212.992462,161.27366 C215.421796,162.424204 218.323807,161.383585 219.470687,158.95425" id="Fill-212"></path>
                <path d="M205.605161,188.279941 C206.752041,185.850607 205.71875,182.948597 203.289416,181.801717 C200.860082,180.651173 197.961736,181.691792 196.811191,184.121126 C195.664311,186.546796 196.697603,189.452471 199.126937,190.599351 C201.556271,191.749895 204.458281,190.709276 205.605161,188.279941" id="Fill-214"></path>
                <path d="M248.79821,172.819776 C249.94509,170.386778 248.908134,167.488432 246.4788,166.341552 C244.05313,165.194671 241.154784,166.231627 240.00424,168.660961 C238.85736,171.090295 239.890651,173.992305 242.316321,175.139186 C244.74932,176.286066 247.65133,175.24911 248.79821,172.819776" id="Fill-216"></path>
                <path d="M234.932684,202.145833 C236.079564,199.716499 235.042609,196.814489 232.613275,195.663945 C230.187605,194.517064 227.289259,195.557684 226.138714,197.987018 C224.991834,200.416353 226.025126,203.318363 228.450796,204.465243 C230.883794,205.615787 233.785804,204.575168 234.932684,202.145833" id="Fill-218"></path>
                <path d="M211.740054,137.359192 C212.172425,136.446817 212.297006,135.468488 212.154104,134.541457 C211.915934,133.002513 210.944933,131.599142 209.424309,130.877303 C207.907349,130.162793 206.199853,130.298367 204.858773,131.093488 C204.048995,131.569828 203.374791,132.288003 202.94242,133.200377 C201.79554,135.622383 202.832496,138.524393 205.265494,139.674937 C207.694828,140.825482 210.596838,139.784862 211.740054,137.359192" id="Fill-220"></path>
                <path d="M241.06941,151.225084 C241.50178,150.312709 241.622697,149.33438 241.483459,148.411013 C241.245289,146.868405 240.270624,145.465034 238.75,144.743195 C237.23304,144.028685 235.529209,144.164259 234.184464,144.95938 C233.37835,145.439384 232.700482,146.153894 232.271776,147.066269 C231.124895,149.491939 232.161851,152.390285 234.591185,153.540829 C237.020519,154.691374 239.922529,153.650754 241.06941,151.225084" id="Fill-222"></path>
                <path d="M139.222781,138.951633 C140.369661,136.522299 139.336369,133.620289 136.903371,132.473409 C134.474037,131.322864 131.572027,132.363484 130.421482,134.792818 C129.274602,137.218488 130.315222,140.120498 132.744556,141.271043 C135.17389,142.421587 138.0759,141.380967 139.222781,138.951633" id="Fill-224"></path>
                <path d="M168.550304,152.818991 C169.697184,150.389657 168.660228,147.487647 166.230894,146.337102 C163.80156,145.190222 160.903214,146.230842 159.75267,148.660176 C158.605789,151.085846 159.639081,153.987856 162.072079,155.1384 C164.501413,156.285281 167.403423,155.248325 168.550304,152.818991" id="Fill-226"></path>
                <path d="M160.817473,131.222466 C161.964353,128.789468 160.927397,125.891122 158.501727,124.744242 C156.072393,123.593698 153.174047,124.630653 152.023503,127.063652 C150.876623,129.492986 151.913578,132.394996 154.342912,133.541876 C156.768582,134.688756 159.670593,133.651801 160.817473,131.222466" id="Fill-228"></path>
                <path d="M146.951581,160.546325 C148.098461,158.116991 147.061505,155.214981 144.635835,154.068101 C142.206501,152.921221 139.308155,153.958176 138.157611,156.38751 C137.010731,158.816845 138.044022,161.718855 140.473356,162.869399 C142.902691,164.016279 145.804701,162.97566 146.951581,160.546325" id="Fill-230"></path>
                <path d="M190.143164,145.088358 C191.293708,142.65536 190.253088,139.757014 187.823754,138.610134 C185.398084,137.45959 182.499738,138.500209 181.349194,140.929544 C180.202314,143.358878 181.239269,146.260888 183.664939,147.407768 C186.094273,148.554648 188.996284,147.517693 190.143164,145.088358" id="Fill-232"></path>
                <path d="M176.279104,174.412217 C177.425984,171.982883 176.389028,169.080873 173.959694,167.933993 C171.534024,166.787113 168.632014,167.824068 167.485134,170.253402 C166.33459,172.682737 167.371545,175.584747 169.797215,176.731627 C172.230214,177.882171 175.132224,176.841552 176.279104,174.412217" id="Fill-234"></path>
                <path d="M153.088306,109.627408 C153.520676,108.715034 153.641593,107.736704 153.498691,106.809673 C153.264186,105.267064 152.289521,103.863693 150.768897,103.145519 C149.251937,102.427345 147.548105,102.566583 146.203361,103.361704 C145.397247,103.838044 144.719378,104.552554 144.287008,105.464929 C143.140128,107.890599 144.180747,110.792609 146.610082,111.943153 C149.04308,113.090034 151.941426,112.053078 153.088306,109.627408" id="Fill-236"></path>
                <path d="M182.415829,123.4933 C182.848199,122.580925 182.969116,121.602596 182.826214,120.675565 C182.591709,119.132956 181.613379,117.729585 180.09642,117.011411 C178.57946,116.293237 176.875628,116.432475 175.530884,117.227596 C174.72477,117.703936 174.050565,118.422111 173.618195,119.334485 C172.471315,121.756491 173.508271,124.658501 175.937605,125.809045 C178.366939,126.95959 181.268949,125.91897 182.415829,123.4933" id="Fill-238"></path>
                <path d="M131.491782,117.356575 C132.638662,114.923576 131.601706,112.02523 129.172372,110.874686 C126.746702,109.727806 123.844692,110.764761 122.697812,113.19776 C121.547268,115.62343 122.584223,118.529104 125.009893,119.675984 C127.442892,120.822864 130.344902,119.785909 131.491782,117.356575" id="Fill-248"></path>
                <path d="M123.762615,95.7618823 C124.194985,94.849508 124.315902,93.8711788 124.173,92.9441478 C123.938495,91.4015389 122.960165,89.9981679 121.443206,89.2799937 C119.926246,88.5618195 118.222414,88.7010574 116.87767,89.4961788 C116.071556,89.9725188 115.397351,90.690693 114.964981,91.6030674 C113.818101,94.0250733 114.855057,96.9270833 117.284391,98.0776277 C119.717389,99.224508 122.615735,98.1875523 123.762615,95.7618823" id="Fill-254"></path>
                <path d="M342.916039,163.496702 C344.062919,161.067368 343.025963,158.165358 340.596629,157.014814 C338.167295,155.867933 335.265285,156.904889 334.11474,159.334223 C332.96786,161.763557 334.00848,164.665567 336.437814,165.816112 C338.867148,166.962992 341.769158,165.926036 342.916039,163.496702" id="Fill-268"></path>
                <path d="M348.675356,178.822393 C348.558103,178.752774 348.451843,178.672163 348.330925,178.613536 C345.897927,177.466656 342.999581,178.503612 341.849037,180.932946 C340.702157,183.36228 341.739112,186.26429 344.168446,187.414835 C345.520519,188.052397 347.01183,187.990107 348.275963,187.407506 C348.481156,184.545802 348.613065,181.684098 348.675356,178.822393" id="Fill-270"></path>
                <path d="M284.262825,135.763453 C285.409705,133.334119 284.372749,130.432108 281.943415,129.285228 C279.514081,128.134684 276.612071,129.175304 275.461526,131.604638 C274.314646,134.030308 275.355266,136.932318 277.7846,138.082862 C280.213934,139.233407 283.115944,138.192787 284.262825,135.763453" id="Fill-272"></path>
                <path d="M313.588515,149.63081 C314.73906,147.197812 313.69844,144.299466 311.269106,143.148922 C308.839772,142.002041 305.941426,143.038997 304.790881,145.468331 C303.644001,147.897665 304.677293,150.799675 307.110291,151.95022 C309.539625,153.0971 312.441635,152.060144 313.588515,149.63081" id="Fill-274"></path>
                <path d="M305.855685,128.032454 C307.006229,125.60312 305.965609,122.70111 303.539939,121.554229 C301.110605,120.407349 298.212259,121.444305 297.061715,123.873639 C295.914835,126.302973 296.95179,129.204983 299.381124,130.351863 C301.806794,131.502408 304.708804,130.461788 305.855685,128.032454" id="Fill-276"></path>
                <path d="M291.989793,157.359977 C293.136673,154.930643 292.099717,152.028633 289.674047,150.881753 C287.244713,149.731208 284.342703,150.771828 283.195823,153.201162 C282.048943,155.626832 283.085898,158.532506 285.515232,159.679387 C287.940902,160.826267 290.842912,159.785647 291.989793,157.359977" id="Fill-278"></path>
                <path d="M335.183208,141.900178 C336.330088,139.46718 335.293132,136.568834 332.863798,135.418289 C330.438128,134.271409 327.539782,135.312029 326.389238,137.741363 C325.242358,140.170697 326.275649,143.072707 328.701319,144.219588 C331.134317,145.366468 334.036327,144.329512 335.183208,141.900178" id="Fill-280"></path>
                <path d="M321.31585,171.225869 C322.466394,168.796535 321.425775,165.894525 318.996441,164.747644 C316.570771,163.600764 313.672425,164.63772 312.525544,167.067054 C311.375,169.492724 312.411956,172.398398 314.837626,173.545278 C317.26696,174.692159 320.16897,173.651539 321.31585,171.225869" id="Fill-282"></path>
                <path d="M298.12835,106.439227 C298.56072,105.526853 298.681637,104.548524 298.538735,103.621493 C298.300565,102.082548 297.329564,100.679177 295.808941,99.9573388 C294.288317,99.2428287 292.584485,99.3784024 291.243405,100.173524 C290.433626,100.649864 289.759422,101.364374 289.327052,102.276748 C288.608878,103.793708 288.744451,105.49754 289.543237,106.83862 C290.023241,107.648398 290.737751,108.326267 291.650126,108.754973 C292.558836,109.187343 293.537165,109.30826 294.464196,109.165358 C296.006805,108.930852 297.410176,107.956187 298.12835,106.439227" id="Fill-284"></path>
                <path d="M327.454407,120.305119 C327.886778,119.392745 328.007695,118.414416 327.868457,117.487385 C327.626623,115.94844 326.655622,114.545069 325.134998,113.826895 C323.618038,113.108721 321.910542,113.244294 320.573126,114.039416 C319.763348,114.51942 319.089144,115.23393 318.656773,116.146304 C317.938599,117.663264 318.074173,119.363432 318.872959,120.704512 C319.349299,121.51429 320.063809,122.192159 320.976183,122.620865 C321.884893,123.053235 322.866887,123.177816 323.790253,123.034914 C325.336526,122.796744 326.736233,121.822079 327.454407,120.305119" id="Fill-286"></path>
                <path d="M225.607412,108.031669 C226.754292,105.59867 225.721001,102.700325 223.291667,101.553444 C220.858668,100.4029 217.960322,101.439856 216.809778,103.872854 C215.662898,106.298524 216.699853,109.200534 219.129188,110.351078 C221.562186,111.497959 224.460532,110.461003 225.607412,108.031669" id="Fill-288"></path>
                <path d="M254.936767,121.897561 C256.083647,119.468227 255.046692,116.566216 252.617358,115.419336 C250.184359,114.268792 247.286013,115.309412 246.139133,117.738746 C244.988589,120.164416 246.025544,123.066426 248.454879,124.21697 C250.887877,125.363851 253.789887,124.326895 254.936767,121.897561" id="Fill-290"></path>
                <path d="M247.202471,100.30067 C248.353015,97.8676717 247.316059,94.9693258 244.886725,93.8224456 C242.457391,92.6719012 239.559045,93.7125209 238.408501,96.1418551 C237.261621,98.5711893 238.298576,101.473199 240.72791,102.62008 C243.157245,103.770624 246.05559,102.730004 247.202471,100.30067" id="Fill-292"></path>
                <path d="M233.336579,129.628193 C234.483459,127.195195 233.450168,124.296849 231.020833,123.149969 C228.591499,121.999424 225.689489,123.040044 224.542609,125.469378 C223.395729,127.895048 224.432684,130.797058 226.862018,131.947603 C229.291353,133.094483 232.189698,132.053863 233.336579,129.628193" id="Fill-294"></path>
                <path d="M276.529994,114.166562 C277.676874,111.733564 276.639918,108.835218 274.210584,107.688338 C271.784914,106.541457 268.886568,107.578413 267.736024,110.011411 C266.589144,112.437081 267.622435,115.339091 270.048105,116.485972 C272.481103,117.636516 275.383113,116.595896 276.529994,114.166562" id="Fill-296"></path>
                <path d="M262.664102,143.494085 C263.810982,141.064751 262.774026,138.162741 260.344692,137.012196 C257.919022,135.865316 255.020676,136.905936 253.870132,139.33527 C252.723252,141.76094 253.756543,144.666614 256.182213,145.813495 C258.615211,146.960375 261.517222,145.919755 262.664102,143.494085" id="Fill-298"></path>
                <path d="M239.473304,78.7059778 C239.905674,77.7936034 240.026591,76.8189384 239.887353,75.8882433 C239.649183,74.3492986 238.674518,72.9459276 237.157559,72.2277534 C235.636935,71.5095791 233.933103,71.6451528 232.588358,72.4402743 C231.782245,72.9166143 231.104376,73.6347885 230.67567,74.5471629 C229.957496,76.0641227 230.09307,77.7642902 230.891855,79.1090348 C231.368195,79.9151487 232.082705,80.5930172 232.99508,81.0253874 C233.907454,81.4540934 234.885783,81.5786746 235.80915,81.4357726 C237.355423,81.1976026 238.75513,80.2229376 239.473304,78.7059778" id="Fill-300"></path>
                <path d="M268.800827,92.5733354 C269.233197,91.6609611 269.354114,90.6826319 269.214876,89.7556009 C268.973042,88.2166562 268.002041,86.8132852 266.481418,86.0914468 C264.964458,85.3769368 263.260626,85.5125105 261.915881,86.3076319 C261.109768,86.7839719 260.435563,87.5021461 260.003193,88.4108564 C259.285019,89.9314803 259.420593,91.6316478 260.219378,92.9727282 C260.695718,93.7825063 261.410228,94.4603748 262.322603,94.8890808 C263.231313,95.321451 264.213306,95.4423681 265.136673,95.2994661 C266.679282,95.0649602 268.082653,94.0902952 268.800827,92.5733354" id="Fill-302"></path>
                <path d="M166.954198,80.2980528 C168.101078,77.8687186 167.067787,74.9667085 164.634789,73.8198283 C162.205454,72.6692839 159.303444,73.7099037 158.156564,76.1392379 C157.00602,78.5649079 158.046639,81.4669179 160.475974,82.6174623 C162.908972,83.7680067 165.807318,82.7273869 166.954198,80.2980528" id="Fill-304"></path>
                <path d="M196.283553,94.1657768 C197.430433,91.7364426 196.393478,88.8344326 193.964144,87.6838882 C191.534809,86.537008 188.632799,87.5776277 187.485919,90.0069619 C186.335375,92.4326319 187.37233,95.334642 189.801665,96.4851863 C192.234663,97.6320666 195.136673,96.595111 196.283553,94.1657768" id="Fill-306"></path>
                <path d="M188.549257,72.5692525 C189.699801,70.1362542 188.659181,67.2379083 186.233511,66.0910281 C183.804177,64.9404837 180.905831,65.9811034 179.755287,68.4104376 C178.608407,70.8397718 179.645362,73.7417818 182.074696,74.8886621 C184.500366,76.0355423 187.402376,74.9985867 188.549257,72.5692525" id="Fill-308"></path>
                <path d="M174.683365,101.894943 C175.830245,99.4656093 174.793289,96.5635992 172.367619,95.416719 C169.938285,94.2698388 167.036275,95.3067944 165.889395,97.7361286 C164.742515,100.161799 165.77947,103.067473 168.208804,104.214353 C170.634474,105.361233 173.536485,104.320613 174.683365,101.894943" id="Fill-310"></path>
                <path d="M217.87678,86.4351445 C219.02366,84.0021461 217.986704,81.1038003 215.55737,79.9532559 C213.1317,78.8063756 210.233354,79.8469954 209.08281,82.2763296 C207.932265,84.7056637 208.969221,87.6076738 211.394891,88.754554 C213.827889,89.9014343 216.729899,88.8644786 217.87678,86.4351445" id="Fill-312"></path>
                <path d="M204.010888,115.760835 C205.157768,113.331501 204.120812,110.429491 201.691478,109.282611 C199.265808,108.135731 196.363798,109.172686 195.216918,111.602021 C194.070038,114.027691 195.103329,116.933365 197.528999,118.080245 C199.961997,119.230789 202.864008,118.186505 204.010888,115.760835" id="Fill-314"></path>
                <path d="M145.357674,88.0290515 C146.504554,85.5997173 145.467598,82.6977073 143.038264,81.5508271 C140.612594,80.4002827 137.710584,81.4409024 136.563704,83.8702366 C135.416824,86.2959066 136.450115,89.2015808 138.875785,90.3484611 C141.308784,91.4953413 144.210794,90.4547215 145.357674,88.0290515" id="Fill-330"></path>
                <path d="M311.994242,77.1117044 C313.141122,74.6823702 312.104167,71.7803601 309.674832,70.6334799 C307.245498,69.4829355 304.343488,70.5235553 303.192944,72.9528894 C302.046064,75.3785595 303.086683,78.2805695 305.512353,79.4311139 C307.945352,80.5779941 310.847362,79.5410385 311.994242,77.1117044" id="Fill-344"></path>
                <path d="M319.721577,98.7085951 C320.868457,96.2755967 319.831501,93.3772508 317.405831,92.2303706 C314.976497,91.0798262 312.078151,92.120446 310.927607,94.5497802 C309.780727,96.9754502 310.817682,99.8811244 313.247016,101.028005 C315.672686,102.174885 318.574696,101.134265 319.721577,98.7085951" id="Fill-346"></path>
                <path d="M290.394054,84.8427031 C291.544598,82.4097048 290.503978,79.5113589 288.074644,78.3608145 C285.648974,77.2139343 282.750628,78.254554 281.603748,80.6838882 C280.453204,83.1095582 281.490159,86.0152324 283.915829,87.1621126 C286.345163,88.3089929 289.247173,87.2683731 290.394054,84.8427031" id="Fill-358"></path>
            </g>
        </g>
    </g>
</svg>